<?xml version="1.0" encoding="UTF-8" standalone="no"?>
<svg width="20px" height="22px" viewBox="0 0 20 22" version="1.1" xmlns="http://www.w3.org/2000/svg" xmlns:xlink="http://www.w3.org/1999/xlink">
    <!-- Generator: Sketch 50.2 (55047) - http://www.bohemiancoding.com/sketch -->
    <title>Facebook_White</title>
    <desc>Created with Sketch.</desc>
    <defs></defs>
    <g id="Symbols" stroke="none" stroke-width="1" fill="none" fill-rule="evenodd">
        <g id="socialIcons" fill="#FFFFFF">
            <g id="Facebook">
                <path d="M10.682648,21.6 L1.10384647,21.6 C0.494030274,21.6 0,21.0661162 0,20.4077713 L0,1.19214493 C0,0.533632367 0.494107878,0 1.10384647,0 L18.8962311,0 C19.5058145,0 20,0.533632367 20,1.19214493 L20,20.4077713 C20,21.0662 19.5057369,21.6 18.8962311,21.6 L13.7997105,21.6 L13.7997105,13.2352896 L16.3993838,13.2352896 L16.788648,9.97541353 L13.7997105,9.97541353 L13.7997105,7.89418863 C13.7997105,6.95037929 14.0423798,6.30720436 15.2955374,6.30720436 L16.8938797,6.30645005 L16.8938797,3.39079074 C16.6174525,3.35106376 15.6686598,3.26230662 14.5648133,3.26230662 C12.2603476,3.26230662 10.682648,4.78148681 10.682648,7.57134398 L10.682648,9.97541353 L8.07630075,9.97541353 L8.07630075,13.2352896 L10.682648,13.2352896 L10.682648,21.6 L10.682648,21.6 Z"></path>
            </g>
        </g>
    </g>
</svg>