<?xml version="1.0" encoding="UTF-8" standalone="no"?>
<svg width="20px" height="22px" viewBox="0 0 20 22" version="1.1" xmlns="http://www.w3.org/2000/svg" xmlns:xlink="http://www.w3.org/1999/xlink">
    <!-- Generator: Sketch 50.2 (55047) - http://www.bohemiancoding.com/sketch -->
    <title>Instagram_White</title>
    <desc>Created with Sketch.</desc>
    <defs></defs>
    <g id="Symbols" stroke="none" stroke-width="1" fill="none" fill-rule="evenodd">
        <g id="socialIcons" transform="translate(-153.000000, 0.000000)" fill="#FFFFFF">
            <g id="Instagram">
                <path d="M170.5,19.575 L155.5,19.575 C155.155,19.575 154.875,19.2726 154.875,18.9 L154.875,8.775 L157.375,8.775 C157.049375,9.28125 156.939375,10.225575 156.939375,10.824975 C156.939375,14.4396 159.66875,17.380575 163.023125,17.380575 C166.378125,17.380575 169.1075,14.4396 169.1075,10.824975 C169.1075,10.225575 169.02875,9.295425 168.625,8.775 L171.125,8.775 L171.125,18.9 C171.125,19.2726 170.845,19.575 170.5,19.575 M163.023125,6.68115 C165.1475,6.68115 166.869375,8.536725 166.869375,10.824975 C166.869375,13.1139 165.1475,14.969475 163.023125,14.969475 C160.899375,14.969475 159.1775,13.1139 159.1775,10.824975 C159.1775,8.536725 160.899375,6.68115 163.023125,6.68115 M168,2.7 L169.875,2.7 C170.22,2.7 170.5,3.0024 170.5,3.375 L170.5,5.4 C170.5,5.7726 170.22,6.075 169.875,6.075 L168,6.075 C167.655,6.075 167.375,5.7726 167.375,5.4 L167.375,3.375 C167.375,3.0024 167.655,2.7 168,2.7 M170.6225,0 L155.3775,0 C154.064375,0 153,1.146825 153,2.561625 L153,19.038375 C153,20.453175 154.064375,21.6 155.3775,21.6 L170.6225,21.6 C171.935625,21.6 173,20.453175 173,19.038375 L173,2.561625 C173,1.146825 171.935625,0 170.6225,0"></path>
            </g>
        </g>
    </g>
</svg>