<?xml version="1.0" encoding="UTF-8" standalone="no"?>
<svg width="28px" height="21px" viewBox="0 0 28 21" version="1.1" xmlns="http://www.w3.org/2000/svg" xmlns:xlink="http://www.w3.org/1999/xlink">
    <!-- Generator: Sketch 50.2 (55047) - http://www.bohemiancoding.com/sketch -->
    <title>Shape</title>
    <desc>Created with Sketch.</desc>
    <defs></defs>
    <g id="Symbols" stroke="none" stroke-width="1" fill="none" fill-rule="evenodd">
        <g id="socialMedia-_-Header" transform="translate(-415.000000, -18.000000)" fill="#FFFFFF">
            <g id="Shape">
                <path d="M439.5,39 L418.5,39 C417.05625,39 415.875,37.81875 415.875,36.375 L415.875,20.625 C415.875,19.18125 417.05625,18 418.5,18 L439.5,18 C440.94375,18 442.125,19.18125 442.125,20.625 L442.125,36.375 C442.125,37.81875 440.94375,39 439.5,39 L439.5,39 Z M439.5,33.75 L429,27.1875 L418.5,33.75 L418.5,36.375 L429,29.8125 L439.5,36.375 L439.5,33.75 L439.5,33.75 Z" transform="translate(429.000000, 28.500000) scale(1, -1) translate(-429.000000, -28.500000) "></path>
            </g>
        </g>
    </g>
</svg>