<?xml version="1.0" encoding="UTF-8" standalone="no"?>
<svg width="16px" height="16px" viewBox="0 0 16 16" version="1.1" xmlns="http://www.w3.org/2000/svg" xmlns:xlink="http://www.w3.org/1999/xlink">
    <!-- Generator: Sketch 50.2 (55047) - http://www.bohemiancoding.com/sketch -->
    <title></title>
    <desc>Created with Sketch.</desc>
    <defs></defs>
    <g id="Symbols" stroke="none" stroke-width="1" fill="none" fill-rule="evenodd">
        <g id="socialMedia-_-Header" transform="translate(-55.000000, -21.000000)" fill="#FFFFFF">
            <g id="">
                <path d="M70.7142857,33.6964286 C70.7142857,33.8973224 70.6770837,34.1595966 70.6026786,34.4832589 C70.5282734,34.8069213 70.4501492,35.061755 70.3683036,35.2477679 C70.2120528,35.6197935 69.7581883,36.0141348 69.0066964,36.4308036 C68.3072882,36.8102698 67.6153308,37 66.9308036,37 C66.7299097,37 66.5345992,36.9869793 66.3448661,36.9609375 C66.155133,36.9348957 65.9412214,36.8883932 65.703125,36.8214286 C65.4650286,36.754464 65.288319,36.700521 65.1729911,36.6595982 C65.0576631,36.6186754 64.851192,36.5424113 64.5535714,36.4308036 C64.2559509,36.3191959 64.073661,36.2522323 64.0066964,36.2299107 C63.2775261,35.9694927 62.626491,35.6607161 62.0535714,35.3035714 C61.1011857,34.7157709 60.1171926,33.9140676 59.1015625,32.8984375 C58.0859324,31.8828074 57.2842291,30.8988143 56.6964286,29.9464286 C56.3392839,29.373509 56.0305073,28.7224739 55.7700893,27.9933036 C55.7477677,27.926339 55.6808041,27.7440491 55.5691964,27.4464286 C55.4575887,27.148808 55.3813246,26.9423369 55.3404018,26.8270089 C55.299479,26.711681 55.245536,26.5349714 55.1785714,26.296875 C55.1116068,26.0587786 55.0651043,25.844867 55.0390625,25.6551339 C55.0130207,25.4654008 55,25.2700903 55,25.0691964 C55,24.3846692 55.1897302,23.6927118 55.5691964,22.9933036 C55.9858652,22.2418117 56.3802065,21.7879472 56.7522321,21.6316964 C56.938245,21.5498508 57.1930787,21.4717266 57.5167411,21.3973214 C57.8404034,21.3229163 58.1026776,21.2857143 58.3035714,21.2857143 C58.4077386,21.2857143 58.4858628,21.2968749 58.5379464,21.3191964 C58.6718757,21.3638395 58.8690463,21.6465748 59.1294643,22.1674107 C59.2113099,22.3087805 59.322916,22.5096713 59.4642857,22.7700893 C59.6056555,23.0305073 59.7358625,23.26674 59.8549107,23.4787946 C59.9739589,23.6908493 60.0892852,23.88988 60.2008929,24.0758929 C60.2232144,24.1056549 60.2883179,24.1986599 60.3962054,24.3549107 C60.5040928,24.5111615 60.5840771,24.6432286 60.6361607,24.7511161 C60.6882443,24.8590035 60.7142857,24.9650292 60.7142857,25.0691964 C60.7142857,25.2180067 60.60826,25.4040167 60.3962054,25.6272321 C60.1841507,25.8504475 59.9534983,26.0550586 59.7042411,26.2410714 C59.4549839,26.4270843 59.2243314,26.6242549 59.0122768,26.8325893 C58.8002222,27.0409237 58.6941964,27.2120529 58.6941964,27.3459821 C58.6941964,27.4129468 58.7127974,27.4966513 58.75,27.5970982 C58.7872026,27.6975451 58.8188243,27.7738093 58.8448661,27.8258929 C58.8709079,27.8779765 58.9229907,27.9672613 59.0011161,28.09375 C59.0792415,28.2202387 59.1220238,28.2909225 59.1294643,28.3058036 C59.6949433,29.3251539 60.3422583,30.1994011 61.0714286,30.9285714 C61.8005989,31.6577417 62.6748461,32.3050567 63.6941964,32.8705357 C63.7090775,32.8779762 63.7797613,32.9207585 63.90625,32.9988839 C64.0327387,33.0770093 64.1220235,33.1290921 64.1741071,33.1551339 C64.2261907,33.1811757 64.3024549,33.2127974 64.4029018,33.25 C64.5033487,33.2872026 64.5870532,33.3058036 64.6540179,33.3058036 C64.7879471,33.3058036 64.9590763,33.1997778 65.1674107,32.9877232 C65.3757451,32.7756686 65.5729157,32.5450161 65.7589286,32.2957589 C65.9449414,32.0465017 66.1495525,31.8158493 66.3727679,31.6037946 C66.5959833,31.39174 66.7819933,31.2857143 66.9308036,31.2857143 C67.0349708,31.2857143 67.1409965,31.3117557 67.2488839,31.3638393 C67.3567714,31.4159229 67.4888385,31.4959072 67.6450893,31.6037946 C67.8013401,31.7116821 67.8943451,31.7767856 67.9241071,31.7991071 C68.11012,31.9107148 68.3091507,32.0260411 68.5212054,32.1450893 C68.73326,32.2641375 68.9694927,32.3943445 69.2299107,32.5357143 C69.4903287,32.677084 69.6912195,32.7886901 69.8325893,32.8705357 C70.3534252,33.1309537 70.6361605,33.3281243 70.6808036,33.4620536 C70.7031251,33.5141372 70.7142857,33.5922614 70.7142857,33.6964286 Z"></path>
            </g>
        </g>
    </g>
</svg>