<?xml version="1.0" encoding="utf-8"?>
<!-- Generator: Adobe Illustrator 22.1.0, SVG Export Plug-In . SVG Version: 6.00 Build 0)  -->
<svg version="1.1" xmlns="http://www.w3.org/2000/svg" xmlns:xlink="http://www.w3.org/1999/xlink" x="0px" y="0px"
	 viewBox="0 0 3671 510" style="enable-background:new 0 0 3671 510;" xml:space="preserve">
<style type="text/css">
	.st0{display:none;}
	.st1{display:inline;}
	.st2{fill:none;}
	.st3{fill:#4CAF50;}
	.st4{fill:#8BC34A;}
	.st5{clip-path:url(#SVGID_2_);fill:#4CAF50;}
	.st6{fill:#FFFFFF;}
	.st7{fill:#388E3C;}
	.st8{clip-path:url(#SVGID_4_);fill:#4CAF50;}
	.st9{clip-path:url(#SVGID_6_);fill:#4CAF50;}
	.st10{clip-path:url(#SVGID_8_);fill:#4CAF50;}
	.st11{clip-path:url(#SVGID_10_);fill:#4CAF50;}
	.st12{clip-path:url(#SVGID_12_);fill:#4CAF50;}
	.st13{clip-path:url(#SVGID_14_);fill:#4CAF50;}
	.st14{clip-path:url(#SVGID_16_);fill:#4CAF50;}
	.st15{clip-path:url(#SVGID_18_);fill:#4CAF50;}
	.st16{clip-path:url(#SVGID_20_);fill:#4CAF50;}
</style>
<g id="bird-cells" class="st0">
	
		<image style="display:inline;overflow:visible;" width="225" height="125" xlink:href="../../fish_pngs/_1.png"  transform="matrix(1 0 0 1 84 192.5)">
	</image>
	
		<image style="display:inline;overflow:visible;" width="225" height="125" xlink:href="../../fish_pngs/_2.png"  transform="matrix(1 0 0 1 406.4767 192.5)">
	</image>
</g>
<g id="FISH" class="st0">
	
		<image style="display:inline;overflow:visible;" width="225" height="125" xlink:href="../../fish_pngs/_3.png"  transform="matrix(1.0416 0 0 1 775.1916 192.5)">
	</image>
	
		<image style="display:inline;overflow:visible;" width="225" height="125" xlink:href="../../fish_pngs/_5.png"  transform="matrix(1 0 0 1 1518.9377 194.9331)">
	</image>
	
		<image style="display:inline;overflow:visible;" width="225" height="125" xlink:href="../../fish_pngs/_4.png"  transform="matrix(1.0355 0 0 1.0355 1148.129 188.0591)">
	</image>
	
		<image style="display:inline;overflow:visible;" width="225" height="125" xlink:href="../../fish_pngs/_6.png"  transform="matrix(1.0355 0 0 1.0355 1904.3469 188.0591)">
	</image>
	
		<image style="display:inline;overflow:visible;" width="225" height="125" xlink:href="../../fish_pngs/_7.png"  transform="matrix(1.0355 0 0 1.0355 2239.2258 188.0591)">
	</image>
	
		<image style="display:inline;overflow:visible;" width="225" height="125" xlink:href="../../fish_pngs/_8.png"  transform="matrix(1.1331 0 0 1.1331 2594.7126 175.8637)">
	</image>
	
		<image style="display:inline;overflow:visible;" width="225" height="125" xlink:href="../../fish_pngs/_9.png"  transform="matrix(1.0106 0 0 1.0106 2989 188.0591)">
	</image>
	
		<image style="display:inline;overflow:visible;" width="225" height="125" xlink:href="../../fish_pngs/_10.png"  transform="matrix(1.0355 0 0 1.0355 3375.0071 188.0591)">
	</image>
</g>
<g id="ILLUSTRATION">
	<g>
		<path class="st3" d="M88.7,243.4c0,0,39.9,29.6,53.5,15.1c4.4-1.7,11.7-3.5,15.1,7.3c1.3,4.2-0.5,18.5-18,14.1
			s-26.2,21.4-42.8,26.7c0,0,0.5-5.3,0-8.3c-0.5-2.9-5.8-2.9-5.3-6.8c0.5-3.9,2.4-3.9,2.4-8.3S84,272.1,84,268.7s3.7,2.4,6.7-5.3
			C93.6,255.6,88.7,243.4,88.7,243.4z"/>
		<path class="st3" d="M212.1,192.8c15.1,3.9,26.4,13.8,37.7,24.3c0.8,0.7,0.3,2-0.8,2.1c-8,0.4-16,1.6-23.9,1.6c0,0-0.1,0-0.1,0
			c-13.6,1.3-28.6,2.4-41.4,7.7c-0.9,0.4-1.8,0.8-2.6,1.2c-1,0.5-2.1-0.5-1.7-1.6c0.8-1.7,1.5-3.4,1.9-5.2c0.6-3.2,0.1-6.7-2-9.1
			c-0.4-0.4-0.8-0.8-0.9-1.4c-0.2-1,0.8-1.9,1.8-2.1c1-0.2,2.1,0.1,3.1,0.1c3.3,0.1,6.4-2.9,6.5-6.2c0-1-0.2-2.2,0.5-3
			c0.6-0.7,1.6-0.8,2.5-0.8c4.3-0.2,8.6,1,12.9,0.9c1.3,0,5.2,0.2,6.1-1.1c0.9-1.2-1.5-4.1-2.2-6.2c-0.2-0.8,0.4-1.6,1.2-1.5
			C211.4,192.7,211.9,192.8,212.1,192.8z"/>
		<path class="st4" d="M305,258.4C305,258.3,304.9,258.3,305,258.4c-0.1-0.2-0.2-0.3-0.3-0.3c-2-1.4-3.9-2.4-5.4-4.4
			c-1.6-2.1-2.9-4.6-4-7c-4.9-10.7-32.1-29.6-46.7-32.1c-14.6-2.4-75.3-13.6-109.8,53.9c0,0,12.2,38.4,86.5,45.7
			c0,0,45.6,4.9,64.6-22.8c2.2-3.8,4.5-7.5,7-11.1c2.2-3.3,4.5-6.4,7.5-9c0.7-0.6,1.4-1.2,1.9-1.9c0.4-0.6,0.6-1.4,0.4-2.1
			c-0.3-0.8-0.9-1-1.7-1.1c-0.2,0,0-6.8,0-7.4C305,258.6,305,258.5,305,258.4z"/>
		<g>
			<defs>
				<path id="SVGID_1_" d="M305,259C305,259,304.9,258.9,305,259c-0.1-0.2-0.2-0.3-0.3-0.3c-2-1.4-3.9-2.4-5.4-4.4
					c-1.6-2.1-2.9-4.6-4-7c-4.9-10.7-32.1-29.6-46.7-32.1c-14.6-2.4-75.3-13.6-109.8,53.9c0,0,12.2,38.4,86.5,45.7
					c0,0,45.6,4.9,64.6-22.8c2.2-3.8,4.5-7.5,7-11.1c2.2-3.3,4.5-6.4,7.5-9c0.7-0.6,1.4-1.2,1.9-1.9c0.4-0.6,0.6-1.4,0.4-2.1
					c-0.3-0.8-0.9-1-1.7-1.1c-0.2,0,0-6.8,0-7.4C305,259.2,305,259.1,305,259z"/>
			</defs>
			<clipPath id="SVGID_2_">
				<use xlink:href="#SVGID_1_"  style="overflow:visible;"/>
			</clipPath>
			<polygon class="st5" points="257.7,207.6 257.7,333.9 323,333.9 323,205.6 			"/>
		</g>
		<circle class="st6" cx="278.6" cy="257.5" r="5.6"/>
		<circle cx="279.8" cy="256.3" r="2.8"/>
		<g>
			<g>
				<path d="M263.7,221.7c-2.7,4.2-8.8,3.5-6.6,10c1.3,3.8,4.5,4.7,2.7,9.6c-0.9,2.3-1.8,3.1-1.1,5.8c0.3,1.3,2.2,0.7,1.9-0.5
					c-1-4.2,2-4,2.6-6.7c0.4-1.8-1.1-3.9-2-5.3c-0.7-1.1-2.4-2.8-2.4-4.2c0-2.2,1.7-3.8,3.2-4.9c1.5-1,2.4-1.3,3.4-2.9
					C266.2,221.7,264.4,220.7,263.7,221.7L263.7,221.7z"/>
			</g>
		</g>
		<g>
			<g>
				<path d="M258.8,260.4c-2,3.4-3.8,7.5-0.8,10.9c0.9,1,2.3-0.4,1.4-1.4c-2.3-2.6-0.3-6,1.1-8.5
					C261.2,260.3,259.5,259.3,258.8,260.4L258.8,260.4z"/>
			</g>
		</g>
		<g>
			<g>
				<path d="M258,274.3c-4.2,4.5-3.2,11.3,2.2,14.3c1.1,0.6,2.1-1.1,1-1.7c-4.2-2.4-5.1-7.6-1.8-11.2
					C260.3,274.8,258.9,273.4,258,274.3L258,274.3z"/>
			</g>
		</g>
		<g>
			<g>
				<path d="M259.4,288.1c-0.4,2.3-1.1,4.3-2.3,6.3c-0.5,0.8-1.2,1.5-1.5,2.4c-0.4,1.1-0.5,1.6-0.3,2.8c0.2,1.8,0.4,2.7-0.3,4.8
					c-0.5,1.3-1.2,1.9-0.5,3.5c0.7,1.6,2.5,2.3,4,2.9c1.2,0.4,1.7-1.5,0.5-1.9c-1.8-0.7-2.9-1.6-1.9-3.7c0.1-0.2,0.7-0.8,0.9-1
					c0.6-1,0.4-1.5,0.3-2.6c-0.2-1.9-0.3,1.4-0.2-2.9c0.1-2.3,0.5-2.5,1.5-4.3c1-1.8,1.4-3.7,1.8-5.7
					C261.5,287.3,259.6,286.8,259.4,288.1L259.4,288.1z"/>
			</g>
		</g>
		<g>
			<g>
				<path d="M203.8,258.8c-3.4,4-4.3,6.7-1.2,10.7c2.6,3.3,2,3.3,0.2,6.3c-0.8,1.4-2.1,3.1-2.5,4.7c-0.2,0.6-0.4,1.1-0.3,1.7
					c0.1,0.9,2.1,2.8,2,3.3c-0.3,1.3,1.7,1.8,1.9,0.5c0.4-1.9-0.2-1.4-0.8-3c-1.5-4.2,2.5-6.3,3.7-9.8c0.4-1.1,0.7-1.7,0-3
					c-0.3-0.6-1-0.9-1.4-1.4c-0.4-0.2-0.8-0.5-1.2-0.7c-1.9-3.2-1.6-5.9,1-8C206.1,259.3,204.7,257.9,203.8,258.8L203.8,258.8z"/>
			</g>
		</g>
		<g>
			<g>
				<path d="M225.1,212.8c-3.9,3.2-1.5,6.3,0.7,9.5c0.1-0.5,0.2-0.9,0.4-1.4c-3.7,1.7-8.1,4.8-9.2,9c-0.8,3,0.7,5.4,3.7,5.7
					c1.3,0.2,1.3-1.8,0-2c-1.9-2.5-1.9-4.6,0.1-6.4c0.4-0.5,0.9-1,1.4-1.5c1.5-1.4,3.1-2.3,4.9-3.2c0.5-0.2,0.6-1,0.4-1.4
					c-1.4-2-3.4-5-1-7C227.5,213.4,226.1,212,225.1,212.8L225.1,212.8z"/>
			</g>
		</g>
		<g>
			<g>
				<path d="M223.8,236.2c-4.8,2.7-7.7,7-3,10.9c1.2,1,1.8,0.9,1.1,1.9c-0.4,0.5-2.2,1-2.8,1.3c-1.1,0.5-2.9,1-3.6,2.2
					c-1.5,2.5,0.3,7.5,0.9,10c0.3,1.2,2.3,0.7,1.9-0.5c-0.5-1.8-1.2-4-1.1-5.9c0.2-3.3,1.2-3.2,3.6-4.3c1-0.5,3.5-1.1,3.9-2.4
					c0.2-0.8-0.1-1.2-0.5-1.9c-0.3-0.6-1.1-0.8-1.5-1.3c-3.5-4.1-1.8-6,2.1-8.2C225.9,237.3,224.9,235.6,223.8,236.2L223.8,236.2z"
					/>
			</g>
		</g>
		<g>
			<g>
				<path d="M234.6,226.6c-1.6,1.8-3.8,4.7-3.6,7.3c0.2,2.4,3.8,3.8,5.5,4.9c1.1,0.7,2.1-1,1-1.7c-1.4-0.9-4.5-2.1-4.3-4.2
					c0.1-1.7,1.8-3.7,2.9-4.9C236.9,227,235.5,225.6,234.6,226.6L234.6,226.6z"/>
			</g>
		</g>
		<g>
			<g>
				<path d="M232.4,240.5c-4.2,1.3-4.9,6.6-1.4,9.1c1,0.8,2-1,1-1.7c-2.2-1.6-1.5-4.7,0.9-5.5C234.1,242,233.6,240.1,232.4,240.5
					L232.4,240.5z"/>
			</g>
		</g>
		<g>
			<g>
				<path d="M231.2,252.5c-1.4,1.2-2.6,2.6-3.7,4c-0.7,1-2,2.3-1.8,3.7c0.3,2.6,5,4.4,7.1,5.2c1.2,0.5,1.7-1.5,0.5-1.9
					c-1.6-0.6-5.9-2.3-5.2-4.4c0.7-1.9,3-3.8,4.5-5.2C233.6,253,232.2,251.6,231.2,252.5L231.2,252.5z"/>
			</g>
		</g>
		<g>
			<g>
				<path d="M232.1,267.9c0,3-4.3,3.6-5.9,5.5c-1.3,1.4-1.7,3.4-0.6,5c0.7,1.1,2.4,0.1,1.7-1c-1.7-2.7,3.1-4.3,4.6-5.5
					c1.3-1,2.2-2.4,2.2-4.1C234.1,266.6,232.1,266.6,232.1,267.9L232.1,267.9z"/>
			</g>
		</g>
		<g>
			<g>
				<path d="M181.4,235c-2.4,3.7-6.9,8.4-7.2,12.9c0.6,1.3,0.6,2.6,0.2,3.9c0.2,1.5-0.2,2.7-1.2,3.6c-0.5,0.9-1.1,1.6-1.6,2.6
					c-0.8,1.8-1,3.8-0.9,5.7c0.1,1.6,0.5,3.1,1.1,4.6c0.9,2.4,4,5.3,3.5,8.1c-0.2,1-1.4,1.5-1.6,2.9c-0.2,2,3.9,8.2,1.6,9.1
					c-1.2,0.5-0.7,2.4,0.5,1.9c3.1-1.3,2.6-3.5,2-6.2c-0.2-0.4-0.5-0.8-0.7-1.3c-1.4-2.5-1.3-4.5,0.5-5.9c0.1-0.3,0.3-0.6,0.4-0.9
					c0.4-1.6-0.8-2.5-1.6-3.8c-2-3-3.8-6.2-3.7-9.9c0.1-3.8,2.8-5.5,4-8.7c1.1-2.9-0.8-5.1,0.3-8.1c1.2-3.2,4.3-6.7,6.2-9.6
					C183.9,234.9,182.1,233.9,181.4,235L181.4,235z"/>
			</g>
		</g>
		<g>
			<g>
				<path d="M167.8,245.1c-1.5,4.5-2.4,8.7,0.8,12.6c0.1-0.6,0.3-1.1,0.4-1.7c-6.4,2.6-9,4.8-7.6,11.8c0.5,2.6,0.1,2.3-1.3,4.2
					c-0.7,1-1.4,1.8-1.7,2.9c-0.9,2.9,0.3,5.5,2.4,7.5c0.9,0.9,2.3-0.5,1.4-1.4c-7.9-7.8,0.5-6.4,1.8-9.6c0.3-0.7,0.3-0.7,0.3-1.6
					c0-1.3-1.2-2.6-1.4-4c-0.6-5.7,3-6.4,6.6-7.9c0.7-0.3,0.9-1,0.4-1.7c-2.8-3.5-1.5-7.1-0.3-10.6
					C170.2,244.4,168.2,243.9,167.8,245.1L167.8,245.1z"/>
			</g>
		</g>
		<g>
			<g>
				<path d="M229.8,281.1c-1.4,1-2,2.5-1.7,4.2c0.1,0.5,0.8,0.8,1.2,0.7c0.6-0.2,0.8-0.7,0.7-1.2c-0.1-0.7,0.3-1.5,0.8-1.9
					c0.4-0.3,0.6-0.9,0.4-1.4C230.9,281,230.2,280.7,229.8,281.1L229.8,281.1z"/>
			</g>
		</g>
		<g>
			<g>
				<path d="M227.6,291.6c-1.8,1.6-3.6,3-3,5.4c0.1,0.4,0.6,0.6,0.7,1c0.5,1.7-0.1,2.5-1,3.8c-0.7,1-1.6,2-1.7,3.2
					c-0.3,1.9,0.7,2.5,2,3.5c2.5,2,3.4,4.6,6.7,4.9c1.3,0.1,1.3-1.9,0-2c1.3,0.1-4.6-3.9-5.1-4.4c-2.6-3,0.1-3.9,1.1-6.3
					c0.5-1.2,0.3-1.9,0.1-3.1c-0.1-0.4-0.7-0.7-0.8-1.1c-0.2-1.6,1.3-2.7,2.3-3.6C230,292.1,228.6,290.7,227.6,291.6L227.6,291.6z"
					/>
			</g>
		</g>
		<ellipse class="st7" cx="275.9" cy="278.7" rx="12.8" ry="9"/>
		<g>
			<g>
				<path d="M121.5,275.6c7.4-2.1,14.3-7.2,20.3-11.8c4.9-3.7,6.7-9.8,10-14.7c8-11.8,20.3-20.2,33.2-25.9c29.7-13,64.7-11,92,7
					c7.9,5.2,12.3,11.8,17.5,19.5c1.8,2.7,3.8,5.3,6.4,7.4c1,0.8,2.8,1.4,3.3,2.6c0.7,1.8-0.5,5.1-0.8,7.1c-0.1,0.5,0.1,1.1,0.7,1.2
					c1.3,0.3,2.5,0.7,3.8,1c-0.2-0.5-0.4-1-0.6-1.5c-5.7,7.9-11.4,15.9-17.2,23.6c-6.3,8.4-13.3,15.3-23.5,18.6
					c-19.8,6.5-41.9,4.3-62.1,0.6c-17-3.1-36.5-6.3-48.3-20.1c-4.9-5.7-8.6-10.3-16.4-11.4c-8.8-1.2-18.2,0.5-26.7,2.8
					c-1.2,0.3-0.7,2.3,0.5,1.9c7.9-2.1,16.4-3.6,24.6-2.9c9.2,0.8,12.7,7.3,18.6,13.3c8.9,9.1,21.7,12.9,33.7,15.6
					c15.1,3.4,30.6,6.1,46.2,6.2c13.8,0.1,30.1-1.4,41.7-9.6c5.8-4.1,10.2-9.7,14.4-15.4c5.5-7.4,10.8-14.9,16.2-22.3
					c0.4-0.5,0-1.3-0.6-1.5c-1.3-0.3-2.5-0.7-3.8-1c0.2,0.4,0.5,0.8,0.7,1.2c0.4-2.7,0.9-5.4,1.3-8.2c0.1-0.4,0-0.9-0.5-1.1
					c-7-3.3-10.4-10.3-14.5-16.4c-3.8-5.6-8.6-9.8-14.2-13.5c-13.1-8.4-28.2-13.5-43.7-15c-26.4-2.5-55.6,6.4-74.9,24.9
					c-5.1,4.9-9.2,10.5-12.5,16.8c-2.8,5.3-6.5,8.2-11.4,11.5c-4.4,3-8.7,6.1-13.9,7.5C119.7,274,120.3,275.9,121.5,275.6
					L121.5,275.6z"/>
			</g>
		</g>
	</g>
	<g>
		<path class="st3" d="M413.3,239.4c0,0,38,32,52.4,18.3c4.5-1.5,11.9-2.8,14.6,8.2c1.1,4.2-1.6,18.4-18.8,13
			c-17.2-5.4-27.5,19.7-44.3,24c0,0,0.8-5.3,0.5-8.2c-0.3-2.9-5.6-3.3-4.9-7.1c0.7-3.9,2.7-3.7,2.9-8.1c0.3-4.4-8.9-11.7-8.7-15.1
			s3.6,2.7,7-4.9C417.4,251.8,413.3,239.4,413.3,239.4z"/>
		<path class="st3" d="M535,196.4c15.1,3.9,26.4,13.8,37.7,24.3c0.8,0.7,0.3,2-0.8,2.1c-8,0.4-16,1.6-23.9,1.6c0,0-0.1,0-0.1,0
			c-13.6,1.3-28.6,2.4-41.4,7.7c-0.9,0.4-1.8,0.8-2.6,1.2c-1,0.5-2.1-0.5-1.7-1.6c0.8-1.7,1.5-3.4,1.9-5.2c0.6-3.2,0.1-6.7-2-9.1
			c-0.4-0.4-0.8-0.8-0.9-1.4c-0.2-1,0.8-1.9,1.8-2.1c1-0.2,2.1,0.1,3.1,0.1c3.3,0.1,6.4-2.9,6.5-6.2c0-1-0.2-2.2,0.5-3
			c0.6-0.7,1.6-0.8,2.5-0.8c4.3-0.2,8.6,1,12.9,0.9c1.3,0,5.2,0.2,6.1-1.1c0.9-1.2-1.5-4.1-2.2-6.2c-0.2-0.8,0.4-1.6,1.2-1.5
			C534.3,196.2,534.8,196.3,535,196.4z"/>
		<path class="st4" d="M627.9,257.9C627.8,257.9,627.8,257.9,627.9,257.9c-0.1-0.2-0.2-0.3-0.3-0.3c-2-1.4-3.9-2.4-5.4-4.4
			c-1.6-2.1-2.9-4.6-4-7c-4.9-10.7-32.1-29.6-46.7-32.1s-75.3-13.6-109.8,53.9c0,0,12.2,38.4,86.5,45.7c0,0,45.6,4.9,64.6-22.8
			c2.2-3.8,4.5-7.5,7-11.1c2.2-3.3,4.5-6.4,7.5-9c0.7-0.6,1.4-1.2,1.9-1.9c0.4-0.6,0.6-1.4,0.4-2.1c-0.3-0.8-0.9-1-1.7-1.1
			c-0.2,0,0-6.8,0-7.4C627.9,258.1,627.9,258,627.9,257.9z"/>
		<g>
			<defs>
				<path id="SVGID_3_" d="M627.9,258.5C627.8,258.5,627.8,258.5,627.9,258.5c-0.1-0.2-0.2-0.3-0.3-0.3c-2-1.4-3.9-2.4-5.4-4.4
					c-1.6-2.1-2.9-4.6-4-7c-4.9-10.7-32.1-29.6-46.7-32.1c-14.6-2.4-75.3-13.6-109.8,53.9c0,0,12.2,38.4,86.5,45.7
					c0,0,45.6,4.9,64.6-22.8c2.2-3.8,4.5-7.5,7-11.1c2.2-3.3,4.5-6.4,7.5-9c0.7-0.6,1.4-1.2,1.9-1.9c0.4-0.6,0.6-1.4,0.4-2.1
					c-0.3-0.8-0.9-1-1.7-1.1c-0.2,0,0-6.8,0-7.4C627.9,258.7,627.9,258.6,627.9,258.5z"/>
			</defs>
			<clipPath id="SVGID_4_">
				<use xlink:href="#SVGID_3_"  style="overflow:visible;"/>
			</clipPath>
			<polygon class="st8" points="580.6,207.1 580.6,333.5 645.9,333.5 645.9,205.1 			"/>
		</g>
		<circle class="st6" cx="601.5" cy="257.1" r="5.6"/>
		<circle cx="602.7" cy="255.8" r="2.8"/>
		<g>
			<g>
				<path d="M586.6,221.3c-2.7,4.2-8.8,3.5-6.6,10c1.3,3.8,4.5,4.7,2.7,9.6c-0.9,2.3-1.8,3.1-1.1,5.8c0.3,1.3,2.2,0.7,1.9-0.5
					c-1-4.2,2-4,2.6-6.7c0.4-1.8-1.1-3.9-2-5.3c-0.7-1.1-2.4-2.8-2.4-4.2c0-2.2,1.7-3.8,3.2-4.9c1.5-1,2.4-1.3,3.4-2.9
					C589,221.2,587.3,220.2,586.6,221.3L586.6,221.3z"/>
			</g>
		</g>
		<g>
			<g>
				<path d="M581.7,260c-2,3.4-3.8,7.5-0.8,10.9c0.9,1,2.3-0.4,1.4-1.4c-2.3-2.6-0.3-6,1.1-8.5C584.1,259.9,582.4,258.8,581.7,260
					L581.7,260z"/>
			</g>
		</g>
		<g>
			<g>
				<path d="M580.9,273.9c-4.2,4.5-3.2,11.3,2.2,14.3c1.1,0.6,2.1-1.1,1-1.7c-4.2-2.4-5.1-7.6-1.8-11.2
					C583.2,274.3,581.8,272.9,580.9,273.9L580.9,273.9z"/>
			</g>
		</g>
		<g>
			<g>
				<path d="M582.3,287.6c-0.4,2.3-1.1,4.3-2.3,6.3c-0.5,0.8-1.2,1.5-1.5,2.4c-0.4,1.1-0.5,1.6-0.3,2.8c0.2,1.8,0.4,2.7-0.3,4.8
					c-0.5,1.3-1.2,1.9-0.5,3.5c0.7,1.6,2.5,2.3,4,2.9c1.2,0.4,1.7-1.5,0.5-1.9c-1.8-0.7-2.9-1.6-1.9-3.7c0.1-0.2,0.7-0.8,0.9-1
					c0.6-1,0.4-1.5,0.3-2.6c-0.2-1.9-0.3,1.4-0.2-2.9c0.1-2.3,0.5-2.5,1.5-4.3c1-1.8,1.4-3.7,1.8-5.7
					C584.4,286.9,582.5,286.3,582.3,287.6L582.3,287.6z"/>
			</g>
		</g>
		<g>
			<g>
				<path d="M526.7,258.4c-3.4,4-4.3,6.7-1.2,10.7c2.6,3.3,2,3.3,0.2,6.3c-0.8,1.4-2.1,3.1-2.5,4.7c-0.2,0.6-0.4,1.1-0.3,1.7
					c0.1,0.9,2.1,2.8,2,3.3c-0.3,1.3,1.7,1.8,1.9,0.5c0.4-1.9-0.2-1.4-0.8-3c-1.5-4.2,2.5-6.3,3.7-9.8c0.4-1.1,0.7-1.7,0-3
					c-0.3-0.6-1-0.9-1.4-1.4c-0.4-0.2-0.8-0.5-1.2-0.7c-1.9-3.2-1.6-5.9,1-8C529,258.8,527.6,257.4,526.7,258.4L526.7,258.4z"/>
			</g>
		</g>
		<g>
			<g>
				<path d="M548,212.3c-3.9,3.2-1.5,6.3,0.7,9.5c0.1-0.5,0.2-0.9,0.4-1.4c-3.7,1.7-8.1,4.8-9.2,9c-0.8,3,0.7,5.4,3.7,5.7
					c1.3,0.2,1.3-1.8,0-2c-1.9-2.5-1.9-4.6,0.1-6.4c0.4-0.5,0.9-1,1.4-1.5c1.5-1.4,3.1-2.3,4.9-3.2c0.5-0.2,0.6-1,0.4-1.4
					c-1.4-2-3.4-5-1-7C550.4,212.9,549,211.5,548,212.3L548,212.3z"/>
			</g>
		</g>
		<g>
			<g>
				<path d="M546.7,235.7c-4.8,2.7-7.7,7-3,10.9c1.2,1,1.8,0.9,1.1,1.9c-0.4,0.5-2.2,1-2.8,1.3c-1.1,0.5-2.9,1-3.6,2.2
					c-1.5,2.5,0.3,7.5,0.9,10c0.3,1.2,2.3,0.7,1.9-0.5c-0.5-1.8-1.2-4-1.1-5.9c0.2-3.3,1.2-3.2,3.6-4.3c1-0.5,3.5-1.1,3.9-2.4
					c0.2-0.8-0.1-1.2-0.5-1.9c-0.3-0.6-1.1-0.8-1.5-1.3c-3.5-4.1-1.8-6,2.1-8.2C548.8,236.8,547.8,235.1,546.7,235.7L546.7,235.7z"
					/>
			</g>
		</g>
		<g>
			<g>
				<path d="M557.5,226.1c-1.6,1.8-3.8,4.7-3.6,7.3c0.2,2.4,3.8,3.8,5.5,4.9c1.1,0.7,2.1-1,1-1.7c-1.4-0.9-4.5-2.1-4.3-4.2
					c0.1-1.7,1.8-3.7,2.9-4.9C559.8,226.6,558.4,225.1,557.5,226.1L557.5,226.1z"/>
			</g>
		</g>
		<g>
			<g>
				<path d="M555.2,240c-4.2,1.3-4.9,6.6-1.4,9.1c1,0.8,2-1,1-1.7c-2.2-1.6-1.5-4.7,0.9-5.5C557,241.6,556.5,239.6,555.2,240
					L555.2,240z"/>
			</g>
		</g>
		<g>
			<g>
				<path d="M554.1,252c-1.4,1.2-2.6,2.6-3.7,4c-0.7,1-2,2.3-1.8,3.7c0.3,2.6,5,4.4,7.1,5.2c1.2,0.5,1.7-1.5,0.5-1.9
					c-1.6-0.6-5.9-2.3-5.2-4.4c0.7-1.9,3-3.8,4.5-5.2C556.5,252.6,555.1,251.2,554.1,252L554.1,252z"/>
			</g>
		</g>
		<g>
			<g>
				<path d="M554.9,267.4c0,3-4.3,3.6-5.9,5.5c-1.3,1.4-1.7,3.4-0.6,5c0.7,1.1,2.4,0.1,1.7-1c-1.7-2.7,3.1-4.3,4.6-5.5
					c1.3-1,2.2-2.4,2.2-4.1C557,266.1,555,266.1,554.9,267.4L554.9,267.4z"/>
			</g>
		</g>
		<g>
			<g>
				<path d="M504.3,234.5c-2.4,3.7-6.9,8.4-7.2,12.9c0.6,1.3,0.6,2.6,0.2,3.9c0.2,1.5-0.2,2.7-1.2,3.6c-0.5,0.9-1.1,1.6-1.6,2.6
					c-0.8,1.8-1,3.8-0.9,5.7c0.1,1.6,0.5,3.1,1.1,4.6c0.9,2.4,4,5.3,3.5,8.1c-0.2,1-1.4,1.5-1.6,2.9c-0.2,2,3.9,8.2,1.6,9.1
					c-1.2,0.5-0.7,2.4,0.5,1.9c3.1-1.3,2.6-3.5,2-6.2c-0.2-0.4-0.5-0.8-0.7-1.3c-1.4-2.5-1.3-4.5,0.5-5.9c0.1-0.3,0.3-0.6,0.4-0.9
					c0.4-1.6-0.8-2.5-1.6-3.8c-2-3-3.8-6.2-3.7-9.9c0.1-3.8,2.8-5.5,4-8.7c1.1-2.9-0.8-5.1,0.3-8.1c1.2-3.2,4.3-6.7,6.2-9.6
					C506.7,234.4,505,233.4,504.3,234.5L504.3,234.5z"/>
			</g>
		</g>
		<g>
			<g>
				<path d="M490.7,244.6c-1.5,4.5-2.4,8.7,0.8,12.6c0.1-0.6,0.3-1.1,0.4-1.7c-6.4,2.6-9,4.8-7.6,11.8c0.5,2.6,0.1,2.3-1.3,4.2
					c-0.7,1-1.4,1.8-1.7,2.9c-0.9,2.9,0.3,5.5,2.4,7.5c0.9,0.9,2.3-0.5,1.4-1.4c-7.9-7.8,0.5-6.4,1.8-9.6c0.3-0.7,0.3-0.7,0.3-1.6
					c0-1.3-1.2-2.6-1.4-4c-0.6-5.7,3-6.4,6.6-7.9c0.7-0.3,0.9-1,0.4-1.7c-2.8-3.5-1.5-7.1-0.3-10.6
					C493.1,243.9,491.1,243.4,490.7,244.6L490.7,244.6z"/>
			</g>
		</g>
		<g>
			<g>
				<path d="M552.7,280.6c-1.4,1-2,2.5-1.7,4.2c0.1,0.5,0.8,0.8,1.2,0.7c0.6-0.2,0.8-0.7,0.7-1.2c-0.1-0.7,0.3-1.5,0.8-1.9
					c0.4-0.3,0.6-0.9,0.4-1.4C553.8,280.5,553.1,280.3,552.7,280.6L552.7,280.6z"/>
			</g>
		</g>
		<g>
			<g>
				<path d="M550.5,291.1c-1.8,1.6-3.6,3-3,5.4c0.1,0.4,0.6,0.6,0.7,1c0.5,1.7-0.1,2.5-1,3.8c-0.7,1-1.6,2-1.7,3.2
					c-0.3,1.9,0.7,2.5,2,3.5c2.5,2,3.4,4.6,6.7,4.9c1.3,0.1,1.3-1.9,0-2c1.3,0.1-4.6-3.9-5.1-4.4c-2.6-3,0.1-3.9,1.1-6.3
					c0.5-1.2,0.3-1.9,0.1-3.1c-0.1-0.4-0.7-0.7-0.8-1.1c-0.2-1.6,1.3-2.7,2.3-3.6C552.9,291.7,551.5,290.3,550.5,291.1L550.5,291.1z
					"/>
			</g>
		</g>
		<ellipse class="st7" cx="598.8" cy="278.3" rx="12.8" ry="9"/>
		<g>
			<g>
				<path d="M444.4,275.1c7.4-2.1,14.3-7.2,20.3-11.8c4.9-3.7,6.7-9.8,10-14.7c8-11.8,20.3-20.2,33.2-25.9c29.7-13,64.7-11,92,7
					c7.9,5.2,12.3,11.8,17.5,19.5c1.8,2.7,3.8,5.3,6.4,7.4c1,0.8,2.8,1.4,3.3,2.6c0.7,1.8-0.5,5.1-0.8,7.1c-0.1,0.5,0.1,1.1,0.7,1.2
					c1.3,0.3,2.5,0.7,3.8,1c-0.2-0.5-0.4-1-0.6-1.5c-5.7,7.9-11.4,15.9-17.2,23.6c-6.3,8.4-13.3,15.3-23.5,18.6
					c-19.8,6.5-41.9,4.3-62.1,0.6c-17-3.1-36.5-6.3-48.3-20.1c-4.9-5.7-8.6-10.3-16.4-11.4c-8.8-1.2-18.2,0.5-26.7,2.8
					c-1.2,0.3-0.7,2.3,0.5,1.9c7.9-2.1,16.4-3.6,24.6-2.9c9.2,0.8,12.7,7.3,18.6,13.3c8.9,9.1,21.7,12.9,33.7,15.6
					c15.1,3.4,30.6,6.1,46.2,6.2c13.8,0.1,30.1-1.4,41.7-9.6c5.8-4.1,10.2-9.7,14.4-15.4c5.5-7.4,10.8-14.9,16.2-22.3
					c0.4-0.5,0-1.3-0.6-1.5c-1.3-0.3-2.5-0.7-3.8-1c0.2,0.4,0.5,0.8,0.7,1.2c0.4-2.7,0.9-5.4,1.3-8.2c0.1-0.4,0-0.9-0.5-1.1
					c-7-3.3-10.4-10.3-14.5-16.4c-3.8-5.6-8.6-9.8-14.2-13.5c-13.1-8.4-28.2-13.5-43.7-15c-26.4-2.5-55.6,6.4-74.9,24.9
					c-5.1,4.9-9.2,10.5-12.5,16.8c-2.8,5.3-6.5,8.2-11.4,11.5c-4.4,3-8.7,6.1-13.9,7.5C442.6,273.5,443.2,275.5,444.4,275.1
					L444.4,275.1z"/>
			</g>
		</g>
	</g>
	<g>
		<path class="st3" d="M785.3,243.7c0,0,39.4,30.3,53.2,15.9c4.4-1.7,11.7-3.3,14.9,7.5c1.3,4.2-0.8,18.5-18.2,13.8
			c-17.4-4.7-26.6,21-43.2,26c0,0,0.6-5.3,0.1-8.3c-0.4-2.9-5.8-3-5.2-6.9s2.5-3.8,2.6-8.2c0.1-4.4-9.4-11.3-9.3-14.7
			c0.1-3.4,3.7,2.5,6.7-5.2C789.9,255.9,785.3,243.7,785.3,243.7z"/>
		<path class="st3" d="M908.3,192c15.1,3.9,26.4,13.8,37.7,24.3c0.8,0.7,0.3,2-0.8,2.1c-8,0.4-16,1.6-23.9,1.6c0,0-0.1,0-0.1,0
			c-13.6,1.3-28.6,2.4-41.4,7.7c-0.9,0.4-1.8,0.8-2.6,1.2c-1,0.5-2.1-0.5-1.7-1.6c0.8-1.7,1.5-3.4,1.9-5.2c0.6-3.2,0.1-6.7-2-9.1
			c-0.4-0.4-0.8-0.8-0.9-1.4c-0.2-1,0.8-1.9,1.8-2.1c1-0.2,2.1,0.1,3.1,0.1c3.3,0.1,6.4-2.9,6.5-6.2c0-1-0.2-2.2,0.5-3
			c0.6-0.7,1.6-0.8,2.5-0.8c4.3-0.2,8.6,1,12.9,0.9c1.3,0,5.2,0.2,6.1-1.1c0.9-1.2-1.5-4.1-2.2-6.2c-0.2-0.8,0.4-1.6,1.2-1.5
			C907.6,191.8,908.1,191.9,908.3,192z"/>
		<path class="st4" d="M1001.2,259.5C1001.1,259.5,1001.1,259.5,1001.2,259.5c-0.1-0.2-0.2-0.3-0.3-0.3c-2-1.4-3.9-2.4-5.4-4.4
			c-1.6-2.1-2.9-4.6-4-7c-4.9-10.7-32.1-29.6-46.7-32.1c-14.6-2.4-75.3-13.6-109.8,53.9c0,0,12.2,38.4,86.5,45.7
			c0,0,45.6,4.9,64.6-22.8c2.2-3.8,4.5-7.5,7-11.1c2.2-3.3,4.5-6.4,7.5-9c0.7-0.6,1.4-1.2,1.9-1.9c0.4-0.6,0.6-1.4,0.4-2.1
			c-0.3-0.8-0.9-1-1.7-1.1c-0.2,0,0-6.8,0-7.4C1001.2,259.7,1001.2,259.6,1001.2,259.5z"/>
		<g>
			<defs>
				<path id="SVGID_5_" d="M1001.2,260.1C1001.1,260.1,1001.1,260.1,1001.2,260.1c-0.1-0.2-0.2-0.3-0.3-0.3c-2-1.4-3.9-2.4-5.4-4.4
					c-1.6-2.1-2.9-4.6-4-7c-4.9-10.7-32.1-29.6-46.7-32.1c-14.6-2.4-75.3-13.6-109.8,53.9c0,0,12.2,38.4,86.5,45.7
					c0,0,45.6,4.9,64.6-22.8c2.2-3.8,4.5-7.5,7-11.1c2.2-3.3,4.5-6.4,7.5-9c0.7-0.6,1.4-1.2,1.9-1.9c0.4-0.6,0.6-1.4,0.4-2.1
					c-0.3-0.8-0.9-1-1.7-1.1c-0.2,0,0-6.8,0-7.4C1001.2,260.3,1001.2,260.2,1001.2,260.1z"/>
			</defs>
			<clipPath id="SVGID_6_">
				<use xlink:href="#SVGID_5_"  style="overflow:visible;"/>
			</clipPath>
			<polygon class="st9" points="953.9,208.7 953.9,335.1 1019.2,335.1 1019.2,206.7 			"/>
		</g>
		<circle class="st6" cx="974.8" cy="258.7" r="5.6"/>
		<circle cx="976" cy="257.4" r="2.8"/>
		<g>
			<g>
				<path d="M959.9,222.9c-2.7,4.2-8.8,3.5-6.6,10c1.3,3.8,4.5,4.7,2.7,9.6c-0.9,2.3-1.8,3.1-1.1,5.8c0.3,1.3,2.2,0.7,1.9-0.5
					c-1-4.2,2-4,2.6-6.7c0.4-1.8-1.1-3.9-2-5.3c-0.7-1.1-2.4-2.8-2.4-4.2c0-2.2,1.7-3.8,3.2-4.9c1.5-1,2.4-1.3,3.4-2.9
					C962.3,222.8,960.6,221.8,959.9,222.9L959.9,222.9z"/>
			</g>
		</g>
		<g>
			<g>
				<path d="M955,261.6c-2,3.4-3.8,7.5-0.8,10.9c0.9,1,2.3-0.4,1.4-1.4c-2.3-2.6-0.3-6,1.1-8.5C957.4,261.4,955.7,260.4,955,261.6
					L955,261.6z"/>
			</g>
		</g>
		<g>
			<g>
				<path d="M954.2,275.5c-4.2,4.5-3.2,11.3,2.2,14.3c1.1,0.6,2.1-1.1,1-1.7c-4.2-2.4-5.1-7.6-1.8-11.2
					C956.5,275.9,955.1,274.5,954.2,275.5L954.2,275.5z"/>
			</g>
		</g>
		<g>
			<g>
				<path d="M955.6,289.2c-0.4,2.3-1.1,4.3-2.3,6.3c-0.5,0.8-1.2,1.5-1.5,2.4c-0.4,1.1-0.5,1.6-0.3,2.8c0.2,1.8,0.4,2.7-0.3,4.8
					c-0.5,1.3-1.2,1.9-0.5,3.5c0.7,1.6,2.5,2.3,4,2.9c1.2,0.4,1.7-1.5,0.5-1.9c-1.8-0.7-2.9-1.6-1.9-3.7c0.1-0.2,0.7-0.8,0.9-1
					c0.6-1,0.4-1.5,0.3-2.6c-0.2-1.9-0.3,1.4-0.2-2.9c0.1-2.3,0.5-2.5,1.5-4.3c1-1.8,1.4-3.7,1.8-5.7
					C957.7,288.5,955.8,287.9,955.6,289.2L955.6,289.2z"/>
			</g>
		</g>
		<g>
			<g>
				<path d="M900,260c-3.4,4-4.3,6.7-1.2,10.7c2.6,3.3,2,3.3,0.2,6.3c-0.8,1.4-2.1,3.1-2.5,4.7c-0.2,0.6-0.4,1.1-0.3,1.7
					c0.1,0.9,2.1,2.8,2,3.3c-0.3,1.3,1.7,1.8,1.9,0.5c0.4-1.9-0.2-1.4-0.8-3c-1.5-4.2,2.5-6.3,3.7-9.8c0.4-1.1,0.7-1.7,0-3
					c-0.3-0.6-1-0.9-1.4-1.4c-0.4-0.2-0.8-0.5-1.2-0.7c-1.9-3.2-1.6-5.9,1-8C902.3,260.4,900.9,259,900,260L900,260z"/>
			</g>
		</g>
		<g>
			<g>
				<path d="M921.3,213.9c-3.9,3.2-1.5,6.3,0.7,9.5c0.1-0.5,0.2-0.9,0.4-1.4c-3.7,1.7-8.1,4.8-9.2,9c-0.8,3,0.7,5.4,3.7,5.7
					c1.3,0.2,1.3-1.8,0-2c-1.9-2.5-1.9-4.6,0.1-6.4c0.4-0.5,0.9-1,1.4-1.5c1.5-1.4,3.1-2.3,4.9-3.2c0.5-0.2,0.6-1,0.4-1.4
					c-1.4-2-3.4-5-1-7C923.7,214.5,922.3,213.1,921.3,213.9L921.3,213.9z"/>
			</g>
		</g>
		<g>
			<g>
				<path d="M920,237.3c-4.8,2.7-7.7,7-3,10.9c1.2,1,1.8,0.9,1.1,1.9c-0.4,0.5-2.2,1-2.8,1.3c-1.1,0.5-2.9,1-3.6,2.2
					c-1.5,2.5,0.3,7.5,0.9,10c0.3,1.2,2.3,0.7,1.9-0.5c-0.5-1.8-1.2-4-1.1-5.9c0.2-3.3,1.2-3.2,3.6-4.3c1-0.5,3.5-1.1,3.9-2.4
					c0.2-0.8-0.1-1.2-0.5-1.9c-0.3-0.6-1.1-0.8-1.5-1.3c-3.5-4.1-1.8-6,2.1-8.2C922.1,238.4,921.1,236.7,920,237.3L920,237.3z"/>
			</g>
		</g>
		<g>
			<g>
				<path d="M930.8,227.7c-1.6,1.8-3.8,4.7-3.6,7.3c0.2,2.4,3.8,3.8,5.5,4.9c1.1,0.7,2.1-1,1-1.7c-1.4-0.9-4.5-2.1-4.3-4.2
					c0.1-1.7,1.8-3.7,2.9-4.9C933.1,228.2,931.7,226.7,930.8,227.7L930.8,227.7z"/>
			</g>
		</g>
		<g>
			<g>
				<path d="M928.5,241.6c-4.2,1.3-4.9,6.6-1.4,9.1c1,0.8,2-1,1-1.7c-2.2-1.6-1.5-4.7,0.9-5.5C930.3,243.1,929.8,241.2,928.5,241.6
					L928.5,241.6z"/>
			</g>
		</g>
		<g>
			<g>
				<path d="M927.4,253.6c-1.4,1.2-2.6,2.6-3.7,4c-0.7,1-2,2.3-1.8,3.7c0.3,2.6,5,4.4,7.1,5.2c1.2,0.5,1.7-1.5,0.5-1.9
					c-1.6-0.6-5.9-2.3-5.2-4.4c0.7-1.9,3-3.8,4.5-5.2C929.8,254.2,928.4,252.8,927.4,253.6L927.4,253.6z"/>
			</g>
		</g>
		<g>
			<g>
				<path d="M928.2,269c0,3-4.3,3.6-5.9,5.5c-1.3,1.4-1.7,3.4-0.6,5c0.7,1.1,2.4,0.1,1.7-1c-1.7-2.7,3.1-4.3,4.6-5.5
					c1.3-1,2.2-2.4,2.2-4.1C930.3,267.7,928.3,267.7,928.2,269L928.2,269z"/>
			</g>
		</g>
		<g>
			<g>
				<path d="M877.6,236.1c-2.4,3.7-6.9,8.4-7.2,12.9c0.6,1.3,0.6,2.6,0.2,3.9c0.2,1.5-0.2,2.7-1.2,3.6c-0.5,0.9-1.1,1.6-1.6,2.6
					c-0.8,1.8-1,3.8-0.9,5.7c0.1,1.6,0.5,3.1,1.1,4.6c0.9,2.4,4,5.3,3.5,8.1c-0.2,1-1.4,1.5-1.6,2.9c-0.2,2,3.9,8.2,1.6,9.1
					c-1.2,0.5-0.7,2.4,0.5,1.9c3.1-1.3,2.6-3.5,2-6.2c-0.2-0.4-0.5-0.8-0.7-1.3c-1.4-2.5-1.3-4.5,0.5-5.9c0.1-0.3,0.3-0.6,0.4-0.9
					c0.4-1.6-0.8-2.5-1.6-3.8c-2-3-3.8-6.2-3.7-9.9c0.1-3.8,2.8-5.5,4-8.7c1.1-2.9-0.8-5.1,0.3-8.1c1.2-3.2,4.3-6.7,6.2-9.6
					C880,236,878.3,235,877.6,236.1L877.6,236.1z"/>
			</g>
		</g>
		<g>
			<g>
				<path d="M864,246.2c-1.5,4.5-2.4,8.7,0.8,12.6c0.1-0.6,0.3-1.1,0.4-1.7c-6.4,2.6-9,4.8-7.6,11.8c0.5,2.6,0.1,2.3-1.3,4.2
					c-0.7,1-1.4,1.8-1.7,2.9c-0.9,2.9,0.3,5.5,2.4,7.5c0.9,0.9,2.3-0.5,1.4-1.4c-7.9-7.8,0.5-6.4,1.8-9.6c0.3-0.7,0.3-0.7,0.3-1.6
					c0-1.3-1.2-2.6-1.4-4c-0.6-5.7,3-6.4,6.6-7.9c0.7-0.3,0.9-1,0.4-1.7c-2.8-3.5-1.5-7.1-0.3-10.6C866.4,245.5,864.4,245,864,246.2
					L864,246.2z"/>
			</g>
		</g>
		<g>
			<g>
				<path d="M926,282.2c-1.4,1-2,2.5-1.7,4.2c0.1,0.5,0.8,0.8,1.2,0.7c0.6-0.2,0.8-0.7,0.7-1.2c-0.1-0.7,0.3-1.5,0.8-1.9
					c0.4-0.3,0.6-0.9,0.4-1.4C927.1,282.1,926.4,281.9,926,282.2L926,282.2z"/>
			</g>
		</g>
		<g>
			<g>
				<path d="M923.8,292.7c-1.8,1.6-3.6,3-3,5.4c0.1,0.4,0.6,0.6,0.7,1c0.5,1.7-0.1,2.5-1,3.8c-0.7,1-1.6,2-1.7,3.2
					c-0.3,1.9,0.7,2.5,2,3.5c2.5,2,3.4,4.6,6.7,4.9c1.3,0.1,1.3-1.9,0-2c1.3,0.1-4.6-3.9-5.1-4.4c-2.6-3,0.1-3.9,1.1-6.3
					c0.5-1.2,0.3-1.9,0.1-3.1c-0.1-0.4-0.7-0.7-0.8-1.1c-0.2-1.6,1.3-2.7,2.3-3.6C926.2,293.3,924.8,291.9,923.8,292.7L923.8,292.7z
					"/>
			</g>
		</g>
		<ellipse class="st7" cx="972.1" cy="279.9" rx="12.8" ry="9"/>
		<g>
			<g>
				<path d="M817.7,276.7c7.4-2.1,14.3-7.2,20.3-11.8c4.9-3.7,6.7-9.8,10-14.7c8-11.8,20.3-20.2,33.2-25.9c29.7-13,64.7-11,92,7
					c7.9,5.2,12.3,11.8,17.5,19.5c1.8,2.7,3.8,5.3,6.4,7.4c1,0.8,2.8,1.4,3.3,2.6c0.7,1.8-0.5,5.1-0.8,7.1c-0.1,0.5,0.1,1.1,0.7,1.2
					c1.3,0.3,2.5,0.7,3.8,1c-0.2-0.5-0.4-1-0.6-1.5c-5.7,7.9-11.4,15.9-17.2,23.6c-6.3,8.4-13.3,15.3-23.5,18.6
					c-19.8,6.5-41.9,4.3-62.1,0.6c-17-3.1-36.5-6.3-48.3-20.1c-4.9-5.7-8.6-10.3-16.4-11.4c-8.8-1.2-18.2,0.5-26.7,2.8
					c-1.2,0.3-0.7,2.3,0.5,1.9c7.9-2.1,16.4-3.6,24.6-2.9c9.2,0.8,12.7,7.3,18.6,13.3c8.9,9.1,21.7,12.9,33.7,15.6
					c15.1,3.4,30.6,6.1,46.2,6.2c13.8,0.1,30.1-1.4,41.7-9.6c5.8-4.1,10.2-9.7,14.4-15.4c5.5-7.4,10.8-14.9,16.2-22.3
					c0.4-0.5,0-1.3-0.6-1.5c-1.3-0.3-2.5-0.7-3.8-1c0.2,0.4,0.5,0.8,0.7,1.2c0.4-2.7,0.9-5.4,1.3-8.2c0.1-0.4,0-0.9-0.5-1.1
					c-7-3.3-10.4-10.3-14.5-16.4c-3.8-5.6-8.6-9.8-14.2-13.5c-13.1-8.4-28.2-13.5-43.7-15c-26.4-2.5-55.6,6.4-74.9,24.9
					c-5.1,4.9-9.2,10.5-12.5,16.8c-2.8,5.3-6.5,8.2-11.4,11.5c-4.4,3-8.7,6.1-13.9,7.5C815.9,275.1,816.5,277.1,817.7,276.7
					L817.7,276.7z"/>
			</g>
		</g>
	</g>
	<g>
		<path class="st3" d="M1161.8,236.7c0,0,35.3,35,50.8,22.4c4.6-1.1,12-1.8,13.9,9.3c0.7,4.3-3.1,18.2-19.8,11.4
			c-16.7-6.8-29,17.5-46.1,20.5c0,0,1.2-5.2,1.2-8.2s-5.4-3.7-4.3-7.5c1-3.8,3-3.5,3.6-7.8c0.6-4.3-7.9-12.4-7.4-15.8
			c0.5-3.4,3.4,2.9,7.3-4.4C1164.9,249.4,1161.8,236.7,1161.8,236.7z"/>
		<path class="st3" d="M1285.6,188.7c15.1,3.9,26.4,13.8,37.7,24.3c0.8,0.7,0.3,2-0.8,2.1c-8,0.4-16,1.6-23.9,1.6c0,0-0.1,0-0.1,0
			c-13.6,1.3-28.6,2.4-41.4,7.7c-0.9,0.4-1.8,0.8-2.6,1.2c-1,0.5-2.1-0.5-1.7-1.6c0.8-1.7,1.5-3.4,1.9-5.2c0.6-3.2,0.1-6.7-2-9.1
			c-0.4-0.4-0.8-0.8-0.9-1.4c-0.2-1,0.8-1.9,1.8-2.1c1-0.2,2.1,0.1,3.1,0.1c3.3,0.1,6.4-2.9,6.5-6.2c0-1-0.2-2.2,0.5-3
			c0.6-0.7,1.6-0.8,2.5-0.8c4.3-0.2,8.6,1,12.9,0.9c1.3,0,5.2,0.2,6.1-1.1c0.9-1.2-1.5-4.1-2.2-6.2c-0.2-0.8,0.4-1.6,1.2-1.5
			C1284.9,188.6,1285.5,188.6,1285.6,188.7z"/>
		<path class="st4" d="M1373.5,256.2C1373.5,256.2,1373.5,256.2,1373.5,256.2c-0.1-0.2-0.2-0.3-0.3-0.3c-2-1.4-3.9-2.4-5.4-4.4
			c-1.6-2.1-2.9-4.6-4-7c-4.9-10.7-32.1-29.6-46.7-32.1c-14.6-2.4-75.3-13.6-109.8,53.9c0,0,12.2,38.4,86.5,45.7
			c0,0,45.6,4.9,64.6-22.8c2.2-3.8,4.5-7.5,7-11.1c2.2-3.3,4.5-6.4,7.5-9c0.7-0.6,1.4-1.2,1.9-1.9c0.4-0.6,0.6-1.4,0.4-2.1
			c-0.3-0.8-0.9-1-1.7-1.1c-0.2,0,0-6.8,0-7.4C1373.5,256.4,1373.5,256.3,1373.5,256.2z"/>
		<g>
			<defs>
				<path id="SVGID_7_" d="M1373.5,256.8C1373.5,256.8,1373.5,256.8,1373.5,256.8c-0.1-0.2-0.2-0.3-0.3-0.3c-2-1.4-3.9-2.4-5.4-4.4
					c-1.6-2.1-2.9-4.6-4-7c-4.9-10.7-32.1-29.6-46.7-32.1c-14.6-2.4-75.3-13.6-109.8,53.9c0,0,12.2,38.4,86.5,45.7
					c0,0,45.6,4.9,64.6-22.8c2.2-3.8,4.5-7.5,7-11.1c2.2-3.3,4.5-6.4,7.5-9c0.7-0.6,1.4-1.2,1.9-1.9c0.4-0.6,0.6-1.4,0.4-2.1
					c-0.3-0.8-0.9-1-1.7-1.1c-0.2,0,0-6.8,0-7.4C1373.5,257.1,1373.5,256.9,1373.5,256.8z"/>
			</defs>
			<clipPath id="SVGID_8_">
				<use xlink:href="#SVGID_7_"  style="overflow:visible;"/>
			</clipPath>
			<polygon class="st10" points="1326.2,205.5 1326.2,331.8 1391.5,331.8 1391.5,203.5 			"/>
		</g>
		<circle class="st6" cx="1347.1" cy="255.4" r="5.6"/>
		<circle cx="1348.3" cy="254.1" r="2.8"/>
		<g>
			<g>
				<path d="M1332.2,219.6c-2.7,4.2-8.8,3.5-6.6,10c1.3,3.8,4.5,4.7,2.7,9.6c-0.9,2.3-1.8,3.1-1.1,5.8c0.3,1.3,2.2,0.7,1.9-0.5
					c-1-4.2,2-4,2.6-6.7c0.4-1.8-1.1-3.9-2-5.3c-0.7-1.1-2.4-2.8-2.4-4.2c0-2.2,1.7-3.8,3.2-4.9c1.5-1,2.4-1.3,3.4-2.9
					C1334.7,219.5,1332.9,218.5,1332.2,219.6L1332.2,219.6z"/>
			</g>
		</g>
		<g>
			<g>
				<path d="M1327.3,258.3c-2,3.4-3.8,7.5-0.8,10.9c0.9,1,2.3-0.4,1.4-1.4c-2.3-2.6-0.3-6,1.1-8.5
					C1329.7,258.2,1328,257.2,1327.3,258.3L1327.3,258.3z"/>
			</g>
		</g>
		<g>
			<g>
				<path d="M1326.6,272.2c-4.2,4.5-3.2,11.3,2.2,14.3c1.1,0.6,2.1-1.1,1-1.7c-4.2-2.4-5.1-7.6-1.8-11.2
					C1328.8,272.6,1327.4,271.2,1326.6,272.2L1326.6,272.2z"/>
			</g>
		</g>
		<g>
			<g>
				<path d="M1327.9,285.9c-0.4,2.3-1.1,4.3-2.3,6.3c-0.5,0.8-1.2,1.5-1.5,2.4c-0.4,1.1-0.5,1.6-0.3,2.8c0.2,1.8,0.4,2.7-0.3,4.8
					c-0.5,1.3-1.2,1.9-0.5,3.5c0.7,1.6,2.5,2.3,4,2.9c1.2,0.4,1.7-1.5,0.5-1.9c-1.8-0.7-2.9-1.6-1.9-3.7c0.1-0.2,0.7-0.8,0.9-1
					c0.6-1,0.4-1.5,0.3-2.6c-0.2-1.9-0.3,1.4-0.2-2.9c0.1-2.3,0.5-2.5,1.5-4.3c1-1.8,1.4-3.7,1.8-5.7
					C1330,285.2,1328.1,284.6,1327.9,285.9L1327.9,285.9z"/>
			</g>
		</g>
		<g>
			<g>
				<path d="M1272.4,256.7c-3.4,4-4.3,6.7-1.2,10.7c2.6,3.3,2,3.3,0.2,6.3c-0.8,1.4-2.1,3.1-2.5,4.7c-0.2,0.6-0.4,1.1-0.3,1.7
					c0.1,0.9,2.1,2.8,2,3.3c-0.3,1.3,1.7,1.8,1.9,0.5c0.4-1.9-0.2-1.4-0.8-3c-1.5-4.2,2.5-6.3,3.7-9.8c0.4-1.1,0.7-1.7,0-3
					c-0.3-0.6-1-0.9-1.4-1.4c-0.4-0.2-0.8-0.5-1.2-0.7c-1.9-3.2-1.6-5.9,1-8C1274.6,257.1,1273.2,255.7,1272.4,256.7L1272.4,256.7z"
					/>
			</g>
		</g>
		<g>
			<g>
				<path d="M1293.6,210.7c-3.9,3.2-1.5,6.3,0.7,9.5c0.1-0.5,0.2-0.9,0.4-1.4c-3.7,1.7-8.1,4.8-9.2,9c-0.8,3,0.7,5.4,3.7,5.7
					c1.3,0.2,1.3-1.8,0-2c-1.9-2.5-1.9-4.6,0.1-6.4c0.4-0.5,0.9-1,1.4-1.5c1.5-1.4,3.1-2.3,4.9-3.2c0.5-0.2,0.6-1,0.4-1.4
					c-1.4-2-3.4-5-1-7C1296,211.3,1294.6,209.8,1293.6,210.7L1293.6,210.7z"/>
			</g>
		</g>
		<g>
			<g>
				<path d="M1292.3,234c-4.8,2.7-7.7,7-3,10.9c1.2,1,1.8,0.9,1.1,1.9c-0.4,0.5-2.2,1-2.8,1.3c-1.1,0.5-2.9,1-3.6,2.2
					c-1.5,2.5,0.3,7.5,0.9,10c0.3,1.2,2.3,0.7,1.9-0.5c-0.5-1.8-1.2-4-1.1-5.9c0.2-3.3,1.2-3.2,3.6-4.3c1-0.5,3.5-1.1,3.9-2.4
					c0.2-0.8-0.1-1.2-0.5-1.9c-0.3-0.6-1.1-0.8-1.5-1.3c-3.5-4.1-1.8-6,2.1-8.2C1294.4,235.1,1293.4,233.4,1292.3,234L1292.3,234z"
					/>
			</g>
		</g>
		<g>
			<g>
				<path d="M1303.1,224.4c-1.6,1.8-3.8,4.7-3.6,7.3c0.2,2.4,3.8,3.8,5.5,4.9c1.1,0.7,2.1-1,1-1.7c-1.4-0.9-4.5-2.1-4.3-4.2
					c0.1-1.7,1.8-3.7,2.9-4.9C1305.4,224.9,1304,223.5,1303.1,224.4L1303.1,224.4z"/>
			</g>
		</g>
		<g>
			<g>
				<path d="M1300.9,238.3c-4.2,1.3-4.9,6.6-1.4,9.1c1,0.8,2-1,1-1.7c-2.2-1.6-1.5-4.7,0.9-5.5
					C1302.6,239.9,1302.1,237.9,1300.9,238.3L1300.9,238.3z"/>
			</g>
		</g>
		<g>
			<g>
				<path d="M1299.7,250.3c-1.4,1.2-2.6,2.6-3.7,4c-0.7,1-2,2.3-1.8,3.7c0.3,2.6,5,4.4,7.1,5.2c1.2,0.5,1.7-1.5,0.5-1.9
					c-1.6-0.6-5.9-2.3-5.2-4.4c0.7-1.9,3-3.8,4.5-5.2C1302.1,250.9,1300.7,249.5,1299.7,250.3L1299.7,250.3z"/>
			</g>
		</g>
		<g>
			<g>
				<path d="M1300.6,265.7c0,3-4.3,3.6-5.9,5.5c-1.3,1.4-1.7,3.4-0.6,5c0.7,1.1,2.4,0.1,1.7-1c-1.7-2.7,3.1-4.3,4.6-5.5
					c1.3-1,2.2-2.4,2.2-4.1C1302.6,264.4,1300.6,264.4,1300.6,265.7L1300.6,265.7z"/>
			</g>
		</g>
		<g>
			<g>
				<path d="M1249.9,232.8c-2.4,3.7-6.9,8.4-7.2,12.9c0.6,1.3,0.6,2.6,0.2,3.9c0.2,1.5-0.2,2.7-1.2,3.6c-0.5,0.9-1.1,1.6-1.6,2.6
					c-0.8,1.8-1,3.8-0.9,5.7c0.1,1.6,0.5,3.1,1.1,4.6c0.9,2.4,4,5.3,3.5,8.1c-0.2,1-1.4,1.5-1.6,2.9c-0.2,2,3.9,8.2,1.6,9.1
					c-1.2,0.5-0.7,2.4,0.5,1.9c3.1-1.3,2.6-3.5,2-6.2c-0.2-0.4-0.5-0.8-0.7-1.3c-1.4-2.5-1.3-4.5,0.5-5.9c0.1-0.3,0.3-0.6,0.4-0.9
					c0.4-1.6-0.8-2.5-1.6-3.8c-2-3-3.8-6.2-3.7-9.9c0.1-3.8,2.8-5.5,4-8.7c1.1-2.9-0.8-5.1,0.3-8.1c1.2-3.2,4.3-6.7,6.2-9.6
					C1252.4,232.7,1250.6,231.7,1249.9,232.8L1249.9,232.8z"/>
			</g>
		</g>
		<g>
			<g>
				<path d="M1236.3,242.9c-1.5,4.5-2.4,8.7,0.8,12.6c0.1-0.6,0.3-1.1,0.4-1.7c-6.4,2.6-9,4.8-7.6,11.8c0.5,2.6,0.1,2.3-1.3,4.2
					c-0.7,1-1.4,1.8-1.7,2.9c-0.9,2.9,0.3,5.5,2.4,7.5c0.9,0.9,2.3-0.5,1.4-1.4c-7.9-7.8,0.5-6.4,1.8-9.6c0.3-0.7,0.3-0.7,0.3-1.6
					c0-1.3-1.2-2.6-1.4-4c-0.6-5.7,3-6.4,6.6-7.9c0.7-0.3,0.9-1,0.4-1.7c-2.8-3.5-1.5-7.1-0.3-10.6
					C1238.7,242.2,1236.8,241.7,1236.3,242.9L1236.3,242.9z"/>
			</g>
		</g>
		<g>
			<g>
				<path d="M1298.3,278.9c-1.4,1-2,2.5-1.7,4.2c0.1,0.5,0.8,0.8,1.2,0.7c0.6-0.2,0.8-0.7,0.7-1.2c-0.1-0.7,0.3-1.5,0.8-1.9
					c0.4-0.3,0.6-0.9,0.4-1.4C1299.4,278.8,1298.8,278.6,1298.3,278.9L1298.3,278.9z"/>
			</g>
		</g>
		<g>
			<g>
				<path d="M1296.1,289.4c-1.8,1.6-3.6,3-3,5.4c0.1,0.4,0.6,0.6,0.7,1c0.5,1.7-0.1,2.5-1,3.8c-0.7,1-1.6,2-1.7,3.2
					c-0.3,1.9,0.7,2.5,2,3.5c2.5,2,3.4,4.6,6.7,4.9c1.3,0.1,1.3-1.9,0-2c1.3,0.1-4.6-3.9-5.1-4.4c-2.6-3,0.1-3.9,1.1-6.3
					c0.5-1.2,0.3-1.9,0.1-3.1c-0.1-0.4-0.7-0.7-0.8-1.1c-0.2-1.6,1.3-2.7,2.3-3.6C1298.5,290,1297.1,288.6,1296.1,289.4
					L1296.1,289.4z"/>
			</g>
		</g>
		<ellipse class="st7" cx="1344.4" cy="276.6" rx="12.8" ry="9"/>
		<g>
			<g>
				<path d="M1190,273.4c7.4-2.1,14.3-7.2,20.3-11.8c4.9-3.7,6.7-9.8,10-14.7c8-11.8,20.3-20.2,33.2-25.9c29.7-13,64.7-11,92,7
					c7.9,5.2,12.3,11.8,17.5,19.5c1.8,2.7,3.8,5.3,6.4,7.4c1,0.8,2.8,1.4,3.3,2.6c0.7,1.8-0.5,5.1-0.8,7.1c-0.1,0.5,0.1,1.1,0.7,1.2
					c1.3,0.3,2.5,0.7,3.8,1c-0.2-0.5-0.4-1-0.6-1.5c-5.7,7.9-11.4,15.9-17.2,23.6c-6.3,8.4-13.3,15.3-23.5,18.6
					c-19.8,6.5-41.9,4.3-62.1,0.6c-17-3.1-36.5-6.3-48.3-20.1c-4.9-5.7-8.6-10.3-16.4-11.4c-8.8-1.2-18.2,0.5-26.7,2.8
					c-1.2,0.3-0.7,2.3,0.5,1.9c7.9-2.1,16.4-3.6,24.6-2.9c9.2,0.8,12.7,7.3,18.6,13.3c8.9,9.1,21.7,12.9,33.7,15.6
					c15.1,3.4,30.6,6.1,46.2,6.2c13.8,0.1,30.1-1.4,41.7-9.6c5.8-4.1,10.2-9.7,14.4-15.4c5.5-7.4,10.8-14.9,16.2-22.3
					c0.4-0.5,0-1.3-0.6-1.5c-1.3-0.3-2.5-0.7-3.8-1c0.2,0.4,0.5,0.8,0.7,1.2c0.4-2.7,0.9-5.4,1.3-8.2c0.1-0.4,0-0.9-0.5-1.1
					c-7-3.3-10.4-10.3-14.5-16.4c-3.8-5.6-8.6-9.8-14.2-13.5c-13.1-8.4-28.2-13.5-43.7-15c-26.4-2.5-55.6,6.4-74.9,24.9
					c-5.1,4.9-9.2,10.5-12.5,16.8c-2.8,5.3-6.5,8.2-11.4,11.5c-4.4,3-8.7,6.1-13.9,7.5C1188.2,271.8,1188.8,273.8,1190,273.4
					L1190,273.4z"/>
			</g>
		</g>
	</g>
	<g>
		<path class="st3" d="M1527,246.6c0,0,39.1,30.7,53,16.5c4.4-1.6,11.8-3.2,14.9,7.7c1.2,4.2-1,18.4-18.4,13.6
			c-17.4-4.8-26.8,20.7-43.5,25.6c0,0,0.6-5.3,0.2-8.3s-5.8-3.1-5.2-6.9c0.6-3.9,2.5-3.8,2.6-8.2c0.1-4.4-9.3-11.4-9.2-14.8
			c0.1-3.4,3.7,2.5,6.8-5.2C1531.5,258.9,1527,246.6,1527,246.6z"/>
		<path class="st3" d="M1648.3,192c15.1,3.9,26.4,13.8,37.7,24.3c0.8,0.7,0.3,2-0.8,2.1c-8,0.4-16,1.6-23.9,1.6c0,0-0.1,0-0.1,0
			c-13.6,1.3-28.6,2.4-41.4,7.7c-0.9,0.4-1.8,0.8-2.6,1.2c-1,0.5-2.1-0.5-1.7-1.6c0.8-1.7,1.5-3.4,1.9-5.2c0.6-3.2,0.1-6.7-2-9.1
			c-0.4-0.4-0.8-0.8-0.9-1.4c-0.2-1,0.8-1.9,1.8-2.1c1-0.2,2.1,0.1,3.1,0.1c3.3,0.1,6.4-2.9,6.5-6.2c0-1-0.2-2.2,0.5-3
			c0.6-0.7,1.6-0.8,2.5-0.8c4.3-0.2,8.6,1,12.9,0.9c1.3,0,5.2,0.2,6.1-1.1c0.9-1.2-1.5-4.1-2.2-6.2c-0.2-0.8,0.4-1.6,1.2-1.5
			C1647.6,191.9,1648.1,192,1648.3,192z"/>
		<path class="st4" d="M1742.1,259.5C1742.1,259.5,1742.1,259.5,1742.1,259.5c-0.1-0.2-0.2-0.3-0.3-0.3c-2-1.4-3.9-2.4-5.4-4.4
			c-1.6-2.1-2.9-4.6-4-7c-4.9-10.7-32.1-29.6-46.7-32.1s-75.3-13.6-109.8,53.9c0,0,12.2,38.4,86.5,45.7c0,0,45.6,4.9,64.6-22.8
			c2.2-3.8,4.5-7.5,7-11.1c2.2-3.3,4.5-6.4,7.5-9c0.7-0.6,1.4-1.2,1.9-1.9c0.4-0.6,0.6-1.4,0.4-2.1c-0.3-0.8-0.9-1-1.7-1.1
			c-0.2,0,0-6.8,0-7.4C1742.2,259.8,1742.2,259.7,1742.1,259.5z"/>
		<g>
			<defs>
				<path id="SVGID_9_" d="M1742.1,260.2C1742.1,260.1,1742.1,260.1,1742.1,260.2c-0.1-0.2-0.2-0.3-0.3-0.3c-2-1.4-3.9-2.4-5.4-4.4
					c-1.6-2.1-2.9-4.6-4-7c-4.9-10.7-32.1-29.6-46.7-32.1c-14.6-2.4-75.3-13.6-109.8,53.9c0,0,12.2,38.4,86.5,45.7
					c0,0,45.6,4.9,64.6-22.8c2.2-3.8,4.5-7.5,7-11.1c2.2-3.3,4.5-6.4,7.5-9c0.7-0.6,1.4-1.2,1.9-1.9c0.4-0.6,0.6-1.4,0.4-2.1
					c-0.3-0.8-0.9-1-1.7-1.1c-0.2,0,0-6.8,0-7.4C1742.2,260.4,1742.2,260.3,1742.1,260.2z"/>
			</defs>
			<clipPath id="SVGID_10_">
				<use xlink:href="#SVGID_9_"  style="overflow:visible;"/>
			</clipPath>
			<polygon class="st11" points="1694.9,208.8 1694.9,335.1 1760.2,335.1 1760.2,206.8 			"/>
		</g>
		<circle class="st6" cx="1715.8" cy="258.7" r="5.6"/>
		<circle cx="1716.9" cy="257.4" r="2.8"/>
		<g>
			<g>
				<path d="M1700.9,222.9c-2.7,4.2-8.8,3.5-6.6,10c1.3,3.8,4.5,4.7,2.7,9.6c-0.9,2.3-1.8,3.1-1.1,5.8c0.3,1.3,2.2,0.7,1.9-0.5
					c-1-4.2,2-4,2.6-6.7c0.4-1.8-1.1-3.9-2-5.3c-0.7-1.1-2.4-2.8-2.4-4.2c0-2.2,1.7-3.8,3.2-4.9c1.5-1,2.4-1.3,3.4-2.9
					C1703.3,222.8,1701.6,221.8,1700.9,222.9L1700.9,222.9z"/>
			</g>
		</g>
		<g>
			<g>
				<path d="M1696,261.6c-2,3.4-3.8,7.5-0.8,10.9c0.9,1,2.3-0.4,1.4-1.4c-2.3-2.6-0.3-6,1.1-8.5
					C1698.4,261.5,1696.7,260.5,1696,261.6L1696,261.6z"/>
			</g>
		</g>
		<g>
			<g>
				<path d="M1695.2,275.5c-4.2,4.5-3.2,11.3,2.2,14.3c1.1,0.6,2.1-1.1,1-1.7c-4.2-2.4-5.1-7.6-1.8-11.2
					C1697.5,276,1696.1,274.5,1695.2,275.5L1695.2,275.5z"/>
			</g>
		</g>
		<g>
			<g>
				<path d="M1696.5,289.2c-0.4,2.3-1.1,4.3-2.3,6.3c-0.5,0.8-1.2,1.5-1.5,2.4c-0.4,1.1-0.5,1.6-0.3,2.8c0.2,1.8,0.4,2.7-0.3,4.8
					c-0.5,1.3-1.2,1.9-0.5,3.5c0.7,1.6,2.5,2.3,4,2.9c1.2,0.4,1.7-1.5,0.5-1.9c-1.8-0.7-2.9-1.6-1.9-3.7c0.1-0.2,0.7-0.8,0.9-1
					c0.6-1,0.4-1.5,0.3-2.6c-0.2-1.9-0.3,1.4-0.2-2.9c0.1-2.3,0.5-2.5,1.5-4.3c1-1.8,1.4-3.7,1.8-5.7
					C1698.7,288.5,1696.8,288,1696.5,289.2L1696.5,289.2z"/>
			</g>
		</g>
		<g>
			<g>
				<path d="M1641,260c-3.4,4-4.3,6.7-1.2,10.7c2.6,3.3,2,3.3,0.2,6.3c-0.8,1.4-2.1,3.1-2.5,4.7c-0.2,0.6-0.4,1.1-0.3,1.7
					c0.1,0.9,2.1,2.8,2,3.3c-0.3,1.3,1.7,1.8,1.9,0.5c0.4-1.9-0.2-1.4-0.8-3c-1.5-4.2,2.5-6.3,3.7-9.8c0.4-1.1,0.7-1.7,0-3
					c-0.3-0.6-1-0.9-1.4-1.4c-0.4-0.2-0.8-0.5-1.2-0.7c-1.9-3.2-1.6-5.9,1-8C1643.3,260.5,1641.9,259,1641,260L1641,260z"/>
			</g>
		</g>
		<g>
			<g>
				<path d="M1662.3,214c-3.9,3.2-1.5,6.3,0.7,9.5c0.1-0.5,0.2-0.9,0.4-1.4c-3.7,1.7-8.1,4.8-9.2,9c-0.8,3,0.7,5.4,3.7,5.7
					c1.3,0.2,1.3-1.8,0-2c-1.9-2.5-1.9-4.6,0.1-6.4c0.4-0.5,0.9-1,1.4-1.5c1.5-1.4,3.1-2.3,4.9-3.2c0.5-0.2,0.6-1,0.4-1.4
					c-1.4-2-3.4-5-1-7C1664.7,214.6,1663.2,213.2,1662.3,214L1662.3,214z"/>
			</g>
		</g>
		<g>
			<g>
				<path d="M1660.9,237.4c-4.8,2.7-7.7,7-3,10.9c1.2,1,1.8,0.9,1.1,1.9c-0.4,0.5-2.2,1-2.8,1.3c-1.1,0.5-2.9,1-3.6,2.2
					c-1.5,2.5,0.3,7.5,0.9,10c0.3,1.2,2.3,0.7,1.9-0.5c-0.5-1.8-1.2-4-1.1-5.9c0.2-3.3,1.2-3.2,3.6-4.3c1-0.5,3.5-1.1,3.9-2.4
					c0.2-0.8-0.1-1.2-0.5-1.9c-0.3-0.6-1.1-0.8-1.5-1.3c-3.5-4.1-1.8-6,2.1-8.2C1663.1,238.5,1662.1,236.7,1660.9,237.4
					L1660.9,237.4z"/>
			</g>
		</g>
		<g>
			<g>
				<path d="M1671.8,227.7c-1.6,1.8-3.8,4.7-3.6,7.3c0.2,2.4,3.8,3.8,5.5,4.9c1.1,0.7,2.1-1,1-1.7c-1.4-0.9-4.5-2.1-4.3-4.2
					c0.1-1.7,1.8-3.7,2.9-4.9C1674.1,228.2,1672.7,226.8,1671.8,227.7L1671.8,227.7z"/>
			</g>
		</g>
		<g>
			<g>
				<path d="M1669.5,241.7c-4.2,1.3-4.9,6.6-1.4,9.1c1,0.8,2-1,1-1.7c-2.2-1.6-1.5-4.7,0.9-5.5
					C1671.3,243.2,1670.8,241.3,1669.5,241.7L1669.5,241.7z"/>
			</g>
		</g>
		<g>
			<g>
				<path d="M1668.4,253.7c-1.4,1.2-2.6,2.6-3.7,4c-0.7,1-2,2.3-1.8,3.7c0.3,2.6,5,4.4,7.1,5.2c1.2,0.5,1.7-1.5,0.5-1.9
					c-1.6-0.6-5.9-2.3-5.2-4.4c0.7-1.9,3-3.8,4.5-5.2C1670.8,254.2,1669.3,252.8,1668.4,253.7L1668.4,253.7z"/>
			</g>
		</g>
		<g>
			<g>
				<path d="M1669.2,269.1c0,3-4.3,3.6-5.9,5.5c-1.3,1.4-1.7,3.4-0.6,5c0.7,1.1,2.4,0.1,1.7-1c-1.7-2.7,3.1-4.3,4.6-5.5
					c1.3-1,2.2-2.4,2.2-4.1C1671.2,267.8,1669.2,267.8,1669.2,269.1L1669.2,269.1z"/>
			</g>
		</g>
		<g>
			<g>
				<path d="M1618.6,236.1c-2.4,3.7-6.9,8.4-7.2,12.9c0.6,1.3,0.6,2.6,0.2,3.9c0.2,1.5-0.2,2.7-1.2,3.6c-0.5,0.9-1.1,1.6-1.6,2.6
					c-0.8,1.8-1,3.8-0.9,5.7c0.1,1.6,0.5,3.1,1.1,4.6c0.9,2.4,4,5.3,3.5,8.1c-0.2,1-1.4,1.5-1.6,2.9c-0.2,2,3.9,8.2,1.6,9.1
					c-1.2,0.5-0.7,2.4,0.5,1.9c3.1-1.3,2.6-3.5,2-6.2c-0.2-0.4-0.5-0.8-0.7-1.3c-1.4-2.5-1.3-4.5,0.5-5.9c0.1-0.3,0.3-0.6,0.4-0.9
					c0.4-1.6-0.8-2.5-1.6-3.8c-2-3-3.8-6.2-3.7-9.9c0.1-3.8,2.8-5.5,4-8.7c1.1-2.9-0.8-5.1,0.3-8.1c1.2-3.2,4.3-6.7,6.2-9.6
					C1621,236.1,1619.3,235.1,1618.6,236.1L1618.6,236.1z"/>
			</g>
		</g>
		<g>
			<g>
				<path d="M1605,246.2c-1.5,4.5-2.4,8.7,0.8,12.6c0.1-0.6,0.3-1.1,0.4-1.7c-6.4,2.6-9,4.8-7.6,11.8c0.5,2.6,0.1,2.3-1.3,4.2
					c-0.7,1-1.4,1.8-1.7,2.9c-0.9,2.9,0.3,5.5,2.4,7.5c0.9,0.9,2.3-0.5,1.4-1.4c-7.9-7.8,0.5-6.4,1.8-9.6c0.3-0.7,0.3-0.7,0.3-1.6
					c0-1.3-1.2-2.6-1.4-4c-0.6-5.7,3-6.4,6.6-7.9c0.7-0.3,0.9-1,0.4-1.7c-2.8-3.5-1.5-7.1-0.3-10.6
					C1607.3,245.6,1605.4,245,1605,246.2L1605,246.2z"/>
			</g>
		</g>
		<g>
			<g>
				<path d="M1667,282.2c-1.4,1-2,2.5-1.7,4.2c0.1,0.5,0.8,0.8,1.2,0.7c0.6-0.2,0.8-0.7,0.7-1.2c-0.1-0.7,0.3-1.5,0.8-1.9
					c0.4-0.3,0.6-0.9,0.4-1.4C1668.1,282.2,1667.4,281.9,1667,282.2L1667,282.2z"/>
			</g>
		</g>
		<g>
			<g>
				<path d="M1664.8,292.8c-1.8,1.6-3.6,3-3,5.4c0.1,0.4,0.6,0.6,0.7,1c0.5,1.7-0.1,2.5-1,3.8c-0.7,1-1.6,2-1.7,3.2
					c-0.3,1.9,0.7,2.5,2,3.5c2.5,2,3.4,4.6,6.7,4.9c1.3,0.1,1.3-1.9,0-2c1.3,0.1-4.6-3.9-5.1-4.4c-2.6-3,0.1-3.9,1.1-6.3
					c0.5-1.2,0.3-1.9,0.1-3.1c-0.1-0.4-0.7-0.7-0.8-1.1c-0.2-1.6,1.3-2.7,2.3-3.6C1667.2,293.3,1665.8,291.9,1664.8,292.8
					L1664.8,292.8z"/>
			</g>
		</g>
		<ellipse class="st7" cx="1713.1" cy="279.9" rx="12.8" ry="9"/>
		<g>
			<g>
				<path d="M1558.7,276.8c7.4-2.1,14.3-7.2,20.3-11.8c4.9-3.7,6.7-9.8,10-14.7c8-11.8,20.3-20.2,33.2-25.9c29.7-13,64.7-11,92,7
					c7.9,5.2,12.3,11.8,17.5,19.5c1.8,2.7,3.8,5.3,6.4,7.4c1,0.8,2.8,1.4,3.3,2.6c0.7,1.8-0.5,5.1-0.8,7.1c-0.1,0.5,0.1,1.1,0.7,1.2
					c1.3,0.3,2.5,0.7,3.8,1c-0.2-0.5-0.4-1-0.6-1.5c-5.7,7.9-11.4,15.9-17.2,23.6c-6.3,8.4-13.3,15.3-23.5,18.6
					c-19.8,6.5-41.9,4.3-62.1,0.6c-17-3.1-36.5-6.3-48.3-20.1c-4.9-5.7-8.6-10.3-16.4-11.4c-8.8-1.2-18.2,0.5-26.7,2.8
					c-1.2,0.3-0.7,2.3,0.5,1.9c7.9-2.1,16.4-3.6,24.6-2.9c9.2,0.8,12.7,7.3,18.6,13.3c8.9,9.1,21.7,12.9,33.7,15.6
					c15.1,3.4,30.6,6.1,46.2,6.2c13.8,0.1,30.1-1.4,41.7-9.6c5.8-4.1,10.2-9.7,14.4-15.4c5.5-7.4,10.8-14.9,16.2-22.3
					c0.4-0.5,0-1.3-0.6-1.5c-1.3-0.3-2.5-0.7-3.8-1c0.2,0.4,0.5,0.8,0.7,1.2c0.4-2.7,0.9-5.4,1.3-8.2c0.1-0.4,0-0.9-0.5-1.1
					c-7-3.3-10.4-10.3-14.5-16.4c-3.8-5.6-8.6-9.8-14.2-13.5c-13.1-8.4-28.2-13.5-43.7-15c-26.4-2.5-55.6,6.4-74.9,24.9
					c-5.1,4.9-9.2,10.5-12.5,16.8c-2.8,5.3-6.5,8.2-11.4,11.5c-4.4,3-8.7,6.1-13.9,7.5C1556.9,275.2,1557.4,277.1,1558.7,276.8
					L1558.7,276.8z"/>
			</g>
		</g>
	</g>
	<g>
		<path class="st3" d="M1911,247.1c0,0,42.3,26.1,54.6,10.3c4.2-2.1,11.3-4.5,15.6,5.9c1.7,4,1.1,18.4-16.7,15.6
			c-17.8-2.8-24.3,23.6-40.3,30.4c0,0,0-5.4-0.7-8.2c-0.7-2.9-6.1-2.4-5.9-6.3c0.1-3.9,2.1-4.1,1.7-8.4s-10.5-10.3-10.8-13.7
			c-0.3-3.4,3.9,2.1,6.2-5.9C1916.9,258.8,1911,247.1,1911,247.1z"/>
		<path class="st3" d="M2035.6,188.7c15.1,3.9,26.4,13.8,37.7,24.3c0.8,0.7,0.3,2-0.8,2.1c-8,0.4-16,1.6-23.9,1.6c0,0-0.1,0-0.1,0
			c-13.6,1.3-28.6,2.4-41.4,7.7c-0.9,0.4-1.8,0.8-2.6,1.2c-1,0.5-2.1-0.5-1.7-1.6c0.8-1.7,1.5-3.4,1.9-5.2c0.6-3.2,0.1-6.7-2-9.1
			c-0.4-0.4-0.8-0.8-0.9-1.4c-0.2-1,0.8-1.9,1.8-2.1c1-0.2,2.1,0.1,3.1,0.1c3.3,0.1,6.4-2.9,6.5-6.2c0-1-0.2-2.2,0.5-3
			c0.6-0.7,1.6-0.8,2.5-0.8c4.3-0.2,8.6,1,12.9,0.9c1.3,0,5.2,0.2,6.1-1.1c0.9-1.2-1.5-4.1-2.2-6.2c-0.2-0.8,0.4-1.6,1.2-1.5
			C2034.9,188.6,2035.5,188.7,2035.6,188.7z"/>
		<path class="st4" d="M2129.5,256.3C2129.5,256.2,2129.5,256.2,2129.5,256.3c-0.1-0.2-0.2-0.3-0.3-0.3c-2-1.4-3.9-2.4-5.4-4.4
			c-1.6-2.1-2.9-4.6-4-7c-4.9-10.7-32.1-29.6-46.7-32.1c-14.6-2.4-75.3-13.6-109.8,53.9c0,0,12.2,38.4,86.5,45.7
			c0,0,45.6,4.9,64.6-22.8c2.2-3.8,4.5-7.5,7-11.1c2.2-3.3,4.5-6.4,7.5-9c0.7-0.6,1.4-1.2,1.9-1.9c0.4-0.6,0.6-1.4,0.4-2.1
			c-0.3-0.8-0.9-1-1.7-1.1c-0.2,0,0-6.8,0-7.4C2129.5,256.5,2129.5,256.4,2129.5,256.3z"/>
		<g>
			<defs>
				<path id="SVGID_11_" d="M2129.5,256.9C2129.5,256.9,2129.5,256.8,2129.5,256.9c-0.1-0.2-0.2-0.3-0.3-0.3c-2-1.4-3.9-2.4-5.4-4.4
					c-1.6-2.1-2.9-4.6-4-7c-4.9-10.7-32.1-29.6-46.7-32.1c-14.6-2.4-75.3-13.6-109.8,53.9c0,0,12.2,38.4,86.5,45.7
					c0,0,45.6,4.9,64.6-22.8c2.2-3.8,4.5-7.5,7-11.1c2.2-3.3,4.5-6.4,7.5-9c0.7-0.6,1.4-1.2,1.9-1.9c0.4-0.6,0.6-1.4,0.4-2.1
					c-0.3-0.8-0.9-1-1.7-1.1c-0.2,0,0-6.8,0-7.4C2129.5,257.1,2129.5,257,2129.5,256.9z"/>
			</defs>
			<clipPath id="SVGID_12_">
				<use xlink:href="#SVGID_11_"  style="overflow:visible;"/>
			</clipPath>
			<polygon class="st12" points="2082.2,205.5 2082.2,331.8 2147.5,331.8 2147.5,203.5 			"/>
		</g>
		<circle class="st6" cx="2103.1" cy="255.4" r="5.6"/>
		<circle cx="2104.3" cy="254.2" r="2.8"/>
		<g>
			<g>
				<path d="M2088.3,219.6c-2.7,4.2-8.8,3.5-6.6,10c1.3,3.8,4.5,4.7,2.7,9.6c-0.9,2.3-1.8,3.1-1.1,5.8c0.3,1.3,2.2,0.7,1.9-0.5
					c-1-4.2,2-4,2.6-6.7c0.4-1.8-1.1-3.9-2-5.3c-0.7-1.1-2.4-2.8-2.4-4.2c0-2.2,1.7-3.8,3.2-4.9c1.5-1,2.4-1.3,3.4-2.9
					C2090.7,219.6,2089,218.6,2088.3,219.6L2088.3,219.6z"/>
			</g>
		</g>
		<g>
			<g>
				<path d="M2083.4,258.3c-2,3.4-3.8,7.5-0.8,10.9c0.9,1,2.3-0.4,1.4-1.4c-2.3-2.6-0.3-6,1.1-8.5
					C2085.8,258.2,2084,257.2,2083.4,258.3L2083.4,258.3z"/>
			</g>
		</g>
		<g>
			<g>
				<path d="M2082.6,272.2c-4.2,4.5-3.2,11.3,2.2,14.3c1.1,0.6,2.1-1.1,1-1.7c-4.2-2.4-5.1-7.6-1.8-11.2
					C2084.9,272.7,2083.5,271.3,2082.6,272.2L2082.6,272.2z"/>
			</g>
		</g>
		<g>
			<g>
				<path d="M2083.9,286c-0.4,2.3-1.1,4.3-2.3,6.3c-0.5,0.8-1.2,1.5-1.5,2.4c-0.4,1.1-0.5,1.6-0.3,2.8c0.2,1.8,0.4,2.7-0.3,4.8
					c-0.5,1.3-1.2,1.9-0.5,3.5c0.7,1.6,2.5,2.3,4,2.9c1.2,0.4,1.7-1.5,0.5-1.9c-1.8-0.7-2.9-1.6-1.9-3.7c0.1-0.2,0.7-0.8,0.9-1
					c0.6-1,0.4-1.5,0.3-2.6c-0.2-1.9-0.3,1.4-0.2-2.9c0.1-2.3,0.5-2.5,1.5-4.3c1-1.8,1.4-3.7,1.8-5.7
					C2086.1,285.2,2084.1,284.7,2083.9,286L2083.9,286z"/>
			</g>
		</g>
		<g>
			<g>
				<path d="M2028.4,256.7c-3.4,4-4.3,6.7-1.2,10.7c2.6,3.3,2,3.3,0.2,6.3c-0.8,1.4-2.1,3.1-2.5,4.7c-0.2,0.6-0.4,1.1-0.3,1.7
					c0.1,0.9,2.1,2.8,2,3.3c-0.3,1.3,1.7,1.8,1.9,0.5c0.4-1.9-0.2-1.4-0.8-3c-1.5-4.2,2.5-6.3,3.7-9.8c0.4-1.1,0.7-1.7,0-3
					c-0.3-0.6-1-0.9-1.4-1.4c-0.4-0.2-0.8-0.5-1.2-0.7c-1.9-3.2-1.6-5.9,1-8C2030.6,257.2,2029.2,255.8,2028.4,256.7L2028.4,256.7z"
					/>
			</g>
		</g>
		<g>
			<g>
				<path d="M2049.6,210.7c-3.9,3.2-1.5,6.3,0.7,9.5c0.1-0.5,0.2-0.9,0.4-1.4c-3.7,1.7-8.1,4.8-9.2,9c-0.8,3,0.7,5.4,3.7,5.7
					c1.3,0.2,1.3-1.8,0-2c-1.9-2.5-1.9-4.6,0.1-6.4c0.4-0.5,0.9-1,1.4-1.5c1.5-1.4,3.1-2.3,4.9-3.2c0.5-0.2,0.6-1,0.4-1.4
					c-1.4-2-3.4-5-1-7C2052,211.3,2050.6,209.9,2049.6,210.7L2049.6,210.7z"/>
			</g>
		</g>
		<g>
			<g>
				<path d="M2048.3,234.1c-4.8,2.7-7.7,7-3,10.9c1.2,1,1.8,0.9,1.1,1.9c-0.4,0.5-2.2,1-2.8,1.3c-1.1,0.5-2.9,1-3.6,2.2
					c-1.5,2.5,0.3,7.5,0.9,10c0.3,1.2,2.3,0.7,1.9-0.5c-0.5-1.8-1.2-4-1.1-5.9c0.2-3.3,1.2-3.2,3.6-4.3c1-0.5,3.5-1.1,3.9-2.4
					c0.2-0.8-0.1-1.2-0.5-1.9c-0.3-0.6-1.1-0.8-1.5-1.3c-3.5-4.1-1.8-6,2.1-8.2C2050.4,235.2,2049.4,233.5,2048.3,234.1
					L2048.3,234.1z"/>
			</g>
		</g>
		<g>
			<g>
				<path d="M2059.2,224.5c-1.6,1.8-3.8,4.7-3.6,7.3c0.2,2.4,3.8,3.8,5.5,4.9c1.1,0.7,2.1-1,1-1.7c-1.4-0.9-4.5-2.1-4.3-4.2
					c0.1-1.7,1.8-3.7,2.9-4.9C2061.4,224.9,2060,223.5,2059.2,224.5L2059.2,224.5z"/>
			</g>
		</g>
		<g>
			<g>
				<path d="M2056.9,238.4c-4.2,1.3-4.9,6.6-1.4,9.1c1,0.8,2-1,1-1.7c-2.2-1.6-1.5-4.7,0.9-5.5
					C2058.6,239.9,2058.1,238,2056.9,238.4L2056.9,238.4z"/>
			</g>
		</g>
		<g>
			<g>
				<path d="M2055.8,250.4c-1.4,1.2-2.6,2.6-3.7,4c-0.7,1-2,2.3-1.8,3.7c0.3,2.6,5,4.4,7.1,5.2c1.2,0.5,1.7-1.5,0.5-1.9
					c-1.6-0.6-5.9-2.3-5.2-4.4c0.7-1.9,3-3.8,4.5-5.2C2058.1,250.9,2056.7,249.5,2055.8,250.4L2055.8,250.4z"/>
			</g>
		</g>
		<g>
			<g>
				<path d="M2056.6,265.8c0,3-4.3,3.6-5.9,5.5c-1.3,1.4-1.7,3.4-0.6,5c0.7,1.1,2.4,0.1,1.7-1c-1.7-2.7,3.1-4.3,4.6-5.5
					c1.3-1,2.2-2.4,2.2-4.1C2058.6,264.5,2056.6,264.5,2056.6,265.8L2056.6,265.8z"/>
			</g>
		</g>
		<g>
			<g>
				<path d="M2006,232.9c-2.4,3.7-6.9,8.4-7.2,12.9c0.6,1.3,0.6,2.6,0.2,3.9c0.2,1.5-0.2,2.7-1.2,3.6c-0.5,0.9-1.1,1.6-1.6,2.6
					c-0.8,1.8-1,3.8-0.9,5.7c0.1,1.6,0.5,3.1,1.1,4.6c0.9,2.4,4,5.3,3.5,8.1c-0.2,1-1.4,1.5-1.6,2.9c-0.2,2,3.9,8.2,1.6,9.1
					c-1.2,0.5-0.7,2.4,0.5,1.9c3.1-1.3,2.6-3.5,2-6.2c-0.2-0.4-0.5-0.8-0.7-1.3c-1.4-2.5-1.3-4.5,0.5-5.9c0.1-0.3,0.3-0.6,0.4-0.9
					c0.4-1.6-0.8-2.5-1.6-3.8c-2-3-3.8-6.2-3.7-9.9c0.1-3.8,2.8-5.5,4-8.7c1.1-2.9-0.8-5.1,0.3-8.1c1.2-3.2,4.3-6.7,6.2-9.6
					C2008.4,232.8,2006.7,231.8,2006,232.9L2006,232.9z"/>
			</g>
		</g>
		<g>
			<g>
				<path d="M1992.4,243c-1.5,4.5-2.4,8.7,0.8,12.6c0.1-0.6,0.3-1.1,0.4-1.7c-6.4,2.6-9,4.8-7.6,11.8c0.5,2.6,0.1,2.3-1.3,4.2
					c-0.7,1-1.4,1.8-1.7,2.9c-0.9,2.9,0.3,5.5,2.4,7.5c0.9,0.9,2.3-0.5,1.4-1.4c-7.9-7.8,0.5-6.4,1.8-9.6c0.3-0.7,0.3-0.7,0.3-1.6
					c0-1.3-1.2-2.6-1.4-4c-0.6-5.7,3-6.4,6.6-7.9c0.7-0.3,0.9-1,0.4-1.7c-2.8-3.5-1.5-7.1-0.3-10.6
					C1994.7,242.3,1992.8,241.8,1992.4,243L1992.4,243z"/>
			</g>
		</g>
		<g>
			<g>
				<path d="M2054.3,279c-1.4,1-2,2.5-1.7,4.2c0.1,0.5,0.8,0.8,1.2,0.7c0.6-0.2,0.8-0.7,0.7-1.2c-0.1-0.7,0.3-1.5,0.8-1.9
					c0.4-0.3,0.6-0.9,0.4-1.4C2055.5,278.9,2054.8,278.6,2054.3,279L2054.3,279z"/>
			</g>
		</g>
		<g>
			<g>
				<path d="M2052.2,289.5c-1.8,1.6-3.6,3-3,5.4c0.1,0.4,0.6,0.6,0.7,1c0.5,1.7-0.1,2.5-1,3.8c-0.7,1-1.6,2-1.7,3.2
					c-0.3,1.9,0.7,2.5,2,3.5c2.5,2,3.4,4.6,6.7,4.9c1.3,0.1,1.3-1.9,0-2c1.3,0.1-4.6-3.9-5.1-4.4c-2.6-3,0.1-3.9,1.1-6.3
					c0.5-1.2,0.3-1.9,0.1-3.1c-0.1-0.4-0.7-0.7-0.8-1.1c-0.2-1.6,1.3-2.7,2.3-3.6C2054.6,290,2053.1,288.6,2052.2,289.5
					L2052.2,289.5z"/>
			</g>
		</g>
		<ellipse class="st7" cx="2100.4" cy="276.7" rx="12.8" ry="9"/>
		<g>
			<g>
				<path d="M1946,273.5c7.4-2.1,14.3-7.2,20.3-11.8c4.9-3.7,6.7-9.8,10-14.7c8-11.8,20.3-20.2,33.2-25.9c29.7-13,64.7-11,92,7
					c7.9,5.2,12.3,11.8,17.5,19.5c1.8,2.7,3.8,5.3,6.4,7.4c1,0.8,2.8,1.4,3.3,2.6c0.7,1.8-0.5,5.1-0.8,7.1c-0.1,0.5,0.1,1.1,0.7,1.2
					c1.3,0.3,2.5,0.7,3.8,1c-0.2-0.5-0.4-1-0.6-1.5c-5.7,7.9-11.4,15.9-17.2,23.6c-6.3,8.4-13.3,15.3-23.5,18.6
					c-19.8,6.5-41.9,4.3-62.1,0.6c-17-3.1-36.5-6.3-48.3-20.1c-4.9-5.7-8.6-10.3-16.4-11.4c-8.8-1.2-18.2,0.5-26.7,2.8
					c-1.2,0.3-0.7,2.3,0.5,1.9c7.9-2.1,16.4-3.6,24.6-2.9c9.2,0.8,12.7,7.3,18.6,13.3c8.9,9.1,21.7,12.9,33.7,15.6
					c15.1,3.4,30.6,6.1,46.2,6.2c13.8,0.1,30.1-1.4,41.7-9.6c5.8-4.1,10.2-9.7,14.4-15.4c5.5-7.4,10.8-14.9,16.2-22.3
					c0.4-0.5,0-1.3-0.6-1.5c-1.3-0.3-2.5-0.7-3.8-1c0.2,0.4,0.5,0.8,0.7,1.2c0.4-2.7,0.9-5.4,1.3-8.2c0.1-0.4,0-0.9-0.5-1.1
					c-7-3.3-10.4-10.3-14.5-16.4c-3.8-5.6-8.6-9.8-14.2-13.5c-13.1-8.4-28.2-13.5-43.7-15c-26.4-2.5-55.6,6.4-74.9,24.9
					c-5.1,4.9-9.2,10.5-12.5,16.8c-2.8,5.3-6.5,8.2-11.4,11.5c-4.4,3-8.7,6.1-13.9,7.5C1944.3,271.9,1944.8,273.8,1946,273.5
					L1946,273.5z"/>
			</g>
		</g>
	</g>
	<g>
		<path class="st3" d="M2249.4,239.6c0,0,38.7,31.2,52.8,17.2c4.4-1.6,11.8-3,14.8,7.9c1.2,4.2-1.2,18.4-18.5,13.4
			c-17.3-5.1-27.1,20.3-43.8,25c0,0,0.7-5.3,0.3-8.3c-0.4-2.9-5.7-3.1-5.1-7c0.6-3.9,2.6-3.8,2.8-8.2c0.2-4.4-9.1-11.5-9-14.9
			c0.1-3.4,3.6,2.6,6.9-5.1S2249.4,239.6,2249.4,239.6z"/>
		<path class="st3" d="M2370.6,189.3c15.2,3.9,26.6,13.8,37.9,24.3c0.8,0.7,0.3,2-0.8,2.1c-8,0.4-16,1.6-24,1.6c0,0-0.1,0-0.1,0
			c-13.7,1.3-28.7,2.4-41.6,7.7c-0.9,0.4-1.8,0.8-2.6,1.2c-1,0.5-2.1-0.5-1.7-1.6c0.8-1.7,1.5-3.4,1.9-5.2c0.6-3.2,0.1-6.7-2-9.1
			c-0.4-0.4-0.8-0.8-0.9-1.4c-0.2-1,0.8-1.9,1.8-2.1c1-0.2,2.1,0.1,3.1,0.1c3.3,0.1,6.4-2.9,6.5-6.2c0-1-0.2-2.2,0.5-3
			c0.6-0.7,1.6-0.8,2.5-0.8c4.3-0.2,8.6,1,13,0.9c1.3,0,5.2,0.2,6.1-1.1c0.9-1.2-1.6-4.1-2.2-6.2c-0.2-0.8,0.4-1.6,1.2-1.5
			C2369.9,189.1,2370.4,189.2,2370.6,189.3z"/>
		<path class="st4" d="M2464.6,256.8C2464.6,256.8,2464.6,256.8,2464.6,256.8c-0.1-0.2-0.2-0.3-0.3-0.3c-2-1.4-3.9-2.4-5.4-4.4
			c-1.6-2.1-2.9-4.6-4-7c-4.9-10.7-32.1-29.6-46.7-32.1c-14.6-2.4-75.3-13.6-109.8,53.9c0,0,12.2,38.4,86.5,45.7
			c0,0,45.6,4.9,64.6-22.8c2.2-3.8,4.5-7.5,7-11.1c2.2-3.3,4.5-6.4,7.5-9c0.7-0.6,1.4-1.2,1.9-1.9c0.4-0.6,0.6-1.4,0.4-2.1
			c-0.3-0.8-0.9-1-1.7-1.1c-0.2,0,0-6.8,0-7.4C2464.7,257,2464.7,256.9,2464.6,256.8z"/>
		<g>
			<defs>
				<path id="SVGID_13_" d="M2464.6,257.4C2464.6,257.4,2464.6,257.4,2464.6,257.4c-0.1-0.2-0.2-0.3-0.3-0.3c-2-1.4-3.9-2.4-5.4-4.4
					c-1.6-2.1-2.9-4.6-4-7c-4.9-10.7-32.1-29.6-46.7-32.1c-14.6-2.4-75.3-13.6-109.8,53.9c0,0,12.2,38.4,86.5,45.7
					c0,0,45.6,4.9,64.6-22.8c2.2-3.8,4.5-7.5,7-11.1c2.2-3.3,4.5-6.4,7.5-9c0.7-0.6,1.4-1.2,1.9-1.9c0.4-0.6,0.6-1.4,0.4-2.1
					c-0.3-0.8-0.9-1-1.7-1.1c-0.2,0,0-6.8,0-7.4C2464.7,257.6,2464.7,257.5,2464.6,257.4z"/>
			</defs>
			<clipPath id="SVGID_14_">
				<use xlink:href="#SVGID_13_"  style="overflow:visible;"/>
			</clipPath>
			<polygon class="st13" points="2417.4,206.1 2417.4,332.4 2482.7,332.4 2482.7,204.1 			"/>
		</g>
		<circle class="st6" cx="2438.3" cy="256" r="5.6"/>
		<circle cx="2439.5" cy="254.7" r="2.8"/>
		<g>
			<g>
				<path d="M2423.4,220.2c-2.7,4.2-8.8,3.5-6.6,10c1.3,3.8,4.5,4.7,2.7,9.6c-0.9,2.3-1.8,3.1-1.1,5.8c0.3,1.3,2.2,0.7,1.9-0.5
					c-1-4.2,2-4,2.6-6.7c0.4-1.8-1.1-3.9-2-5.3c-0.7-1.1-2.4-2.8-2.4-4.2c0-2.2,1.7-3.8,3.2-4.9c1.5-1,2.4-1.3,3.4-2.9
					C2425.8,220.1,2424.1,219.1,2423.4,220.2L2423.4,220.2z"/>
			</g>
		</g>
		<g>
			<g>
				<path d="M2418.5,258.9c-2,3.4-3.8,7.5-0.8,10.9c0.9,1,2.3-0.4,1.4-1.4c-2.3-2.6-0.3-6,1.1-8.5
					C2420.9,258.8,2419.2,257.7,2418.5,258.9L2418.5,258.9z"/>
			</g>
		</g>
		<g>
			<g>
				<path d="M2417.7,272.8c-4.2,4.5-3.2,11.3,2.2,14.3c1.1,0.6,2.1-1.1,1-1.7c-4.2-2.4-5.1-7.6-1.8-11.2
					C2420,273.2,2418.6,271.8,2417.7,272.8L2417.7,272.8z"/>
			</g>
		</g>
		<g>
			<g>
				<path d="M2419,286.5c-0.4,2.3-1.1,4.3-2.3,6.3c-0.5,0.8-1.2,1.5-1.5,2.4c-0.4,1.1-0.5,1.6-0.3,2.8c0.2,1.8,0.4,2.7-0.3,4.8
					c-0.5,1.3-1.2,1.9-0.5,3.5c0.7,1.6,2.5,2.3,4,2.9c1.2,0.4,1.7-1.5,0.5-1.9c-1.8-0.7-2.9-1.6-1.9-3.7c0.1-0.2,0.7-0.8,0.9-1
					c0.6-1,0.4-1.5,0.3-2.6c-0.2-1.9-0.3,1.4-0.2-2.9c0.1-2.3,0.5-2.5,1.5-4.3c1-1.8,1.4-3.7,1.8-5.7
					C2421.2,285.8,2419.3,285.2,2419,286.5L2419,286.5z"/>
			</g>
		</g>
		<g>
			<g>
				<path d="M2363.5,257.3c-3.4,4-4.3,6.7-1.2,10.7c2.6,3.3,2,3.3,0.2,6.3c-0.8,1.4-2.1,3.1-2.5,4.7c-0.2,0.6-0.4,1.1-0.3,1.7
					c0.1,0.9,2.1,2.8,2,3.3c-0.3,1.3,1.7,1.8,1.9,0.5c0.4-1.9-0.2-1.4-0.8-3c-1.5-4.2,2.5-6.3,3.7-9.8c0.4-1.1,0.7-1.7,0-3
					c-0.3-0.6-1-0.9-1.4-1.4c-0.4-0.2-0.8-0.5-1.2-0.7c-1.9-3.2-1.6-5.9,1-8C2365.8,257.7,2364.4,256.3,2363.5,257.3L2363.5,257.3z"
					/>
			</g>
		</g>
		<g>
			<g>
				<path d="M2384.8,211.3c-3.9,3.2-1.5,6.3,0.7,9.5c0.1-0.5,0.2-0.9,0.4-1.4c-3.7,1.7-8.1,4.8-9.2,9c-0.8,3,0.7,5.4,3.7,5.7
					c1.3,0.2,1.3-1.8,0-2c-1.9-2.5-1.9-4.6,0.1-6.4c0.4-0.5,0.9-1,1.4-1.5c1.5-1.4,3.1-2.3,4.9-3.2c0.5-0.2,0.6-1,0.4-1.4
					c-1.4-2-3.4-5-1-7C2387.2,211.8,2385.8,210.4,2384.8,211.3L2384.8,211.3z"/>
			</g>
		</g>
		<g>
			<g>
				<path d="M2383.4,234.6c-4.8,2.7-7.7,7-3,10.9c1.2,1,1.8,0.9,1.1,1.9c-0.4,0.5-2.2,1-2.8,1.3c-1.1,0.5-2.9,1-3.6,2.2
					c-1.5,2.5,0.3,7.5,0.9,10c0.3,1.2,2.3,0.7,1.9-0.5c-0.5-1.8-1.2-4-1.1-5.9c0.2-3.3,1.2-3.2,3.6-4.3c1-0.5,3.5-1.1,3.9-2.4
					c0.2-0.8-0.1-1.2-0.5-1.9c-0.3-0.6-1.1-0.8-1.5-1.3c-3.5-4.1-1.8-6,2.1-8.2C2385.6,235.7,2384.6,234,2383.4,234.6L2383.4,234.6z
					"/>
			</g>
		</g>
		<g>
			<g>
				<path d="M2394.3,225c-1.6,1.8-3.8,4.7-3.6,7.3c0.2,2.4,3.8,3.8,5.5,4.9c1.1,0.7,2.1-1,1-1.7c-1.4-0.9-4.5-2.1-4.3-4.2
					c0.1-1.7,1.8-3.7,2.9-4.9C2396.6,225.5,2395.2,224,2394.3,225L2394.3,225z"/>
			</g>
		</g>
		<g>
			<g>
				<path d="M2392,238.9c-4.2,1.3-4.9,6.6-1.4,9.1c1,0.8,2-1,1-1.7c-2.2-1.6-1.5-4.7,0.9-5.5C2393.8,240.5,2393.3,238.5,2392,238.9
					L2392,238.9z"/>
			</g>
		</g>
		<g>
			<g>
				<path d="M2390.9,250.9c-1.4,1.2-2.6,2.6-3.7,4c-0.7,1-2,2.3-1.8,3.7c0.3,2.6,5,4.4,7.1,5.2c1.2,0.5,1.7-1.5,0.5-1.9
					c-1.6-0.6-5.9-2.3-5.2-4.4c0.7-1.9,3-3.8,4.5-5.2C2393.3,251.5,2391.8,250.1,2390.9,250.9L2390.9,250.9z"/>
			</g>
		</g>
		<g>
			<g>
				<path d="M2391.7,266.3c0,3-4.3,3.6-5.9,5.5c-1.3,1.4-1.7,3.4-0.6,5c0.7,1.1,2.4,0.1,1.7-1c-1.7-2.7,3.1-4.3,4.6-5.5
					c1.3-1,2.2-2.4,2.2-4.1C2393.7,265,2391.7,265,2391.7,266.3L2391.7,266.3z"/>
			</g>
		</g>
		<g>
			<g>
				<path d="M2341.1,233.4c-2.4,3.7-6.9,8.4-7.2,12.9c0.6,1.3,0.6,2.6,0.2,3.9c0.2,1.5-0.2,2.7-1.2,3.6c-0.5,0.9-1.1,1.6-1.6,2.6
					c-0.8,1.8-1,3.8-0.9,5.7c0.1,1.6,0.5,3.1,1.1,4.6c0.9,2.4,4,5.3,3.5,8.1c-0.2,1-1.4,1.5-1.6,2.9c-0.2,2,3.9,8.2,1.6,9.1
					c-1.2,0.5-0.7,2.4,0.5,1.9c3.1-1.3,2.6-3.5,2-6.2c-0.2-0.4-0.5-0.8-0.7-1.3c-1.4-2.5-1.3-4.5,0.5-5.9c0.1-0.3,0.3-0.6,0.4-0.9
					c0.4-1.6-0.8-2.5-1.6-3.8c-2-3-3.8-6.2-3.7-9.9c0.1-3.8,2.8-5.5,4-8.7c1.1-2.9-0.8-5.1,0.3-8.1c1.2-3.2,4.3-6.7,6.2-9.6
					C2343.5,233.3,2341.8,232.3,2341.1,233.4L2341.1,233.4z"/>
			</g>
		</g>
		<g>
			<g>
				<path d="M2327.5,243.5c-1.5,4.5-2.4,8.7,0.8,12.6c0.1-0.6,0.3-1.1,0.4-1.7c-6.4,2.6-9,4.8-7.6,11.8c0.5,2.6,0.1,2.3-1.3,4.2
					c-0.7,1-1.4,1.8-1.7,2.9c-0.9,2.9,0.3,5.5,2.4,7.5c0.9,0.9,2.3-0.5,1.4-1.4c-7.9-7.8,0.5-6.4,1.8-9.6c0.3-0.7,0.3-0.7,0.3-1.6
					c0-1.3-1.2-2.6-1.4-4c-0.6-5.7,3-6.4,6.6-7.9c0.7-0.3,0.9-1,0.4-1.7c-2.8-3.5-1.5-7.1-0.3-10.6
					C2329.8,242.8,2327.9,242.3,2327.5,243.5L2327.5,243.5z"/>
			</g>
		</g>
		<g>
			<g>
				<path d="M2389.5,279.5c-1.4,1-2,2.5-1.7,4.2c0.1,0.5,0.8,0.8,1.2,0.7c0.6-0.2,0.8-0.7,0.7-1.2c-0.1-0.7,0.3-1.5,0.8-1.9
					c0.4-0.3,0.6-0.9,0.4-1.4C2390.6,279.4,2389.9,279.2,2389.5,279.5L2389.5,279.5z"/>
			</g>
		</g>
		<g>
			<g>
				<path d="M2387.3,290c-1.8,1.6-3.6,3-3,5.4c0.1,0.4,0.6,0.6,0.7,1c0.5,1.7-0.1,2.5-1,3.8c-0.7,1-1.6,2-1.7,3.2
					c-0.3,1.9,0.7,2.5,2,3.5c2.5,2,3.4,4.6,6.7,4.9c1.3,0.1,1.3-1.9,0-2c1.3,0.1-4.6-3.9-5.1-4.4c-2.6-3,0.1-3.9,1.1-6.3
					c0.5-1.2,0.3-1.9,0.1-3.1c-0.1-0.4-0.7-0.7-0.8-1.1c-0.2-1.6,1.3-2.7,2.3-3.6C2389.7,290.6,2388.3,289.2,2387.3,290L2387.3,290z
					"/>
			</g>
		</g>
		<ellipse class="st7" cx="2435.6" cy="277.2" rx="12.8" ry="9"/>
		<g>
			<g>
				<path d="M2281.2,274c7.4-2.1,14.3-7.2,20.3-11.8c4.9-3.7,6.7-9.8,10-14.7c8-11.8,20.3-20.2,33.2-25.9c29.7-13,64.7-11,92,7
					c7.9,5.2,12.3,11.8,17.5,19.5c1.8,2.7,3.8,5.3,6.4,7.4c1,0.8,2.8,1.4,3.3,2.6c0.7,1.8-0.5,5.1-0.8,7.1c-0.1,0.5,0.1,1.1,0.7,1.2
					c1.3,0.3,2.5,0.7,3.8,1c-0.2-0.5-0.4-1-0.6-1.5c-5.7,7.9-11.4,15.9-17.2,23.6c-6.3,8.4-13.3,15.3-23.5,18.6
					c-19.8,6.5-41.9,4.3-62.1,0.6c-17-3.1-36.5-6.3-48.3-20.1c-4.9-5.7-8.6-10.3-16.4-11.4c-8.8-1.2-18.2,0.5-26.7,2.8
					c-1.2,0.3-0.7,2.3,0.5,1.9c7.9-2.1,16.4-3.6,24.6-2.9c9.2,0.8,12.7,7.3,18.6,13.3c8.9,9.1,21.7,12.9,33.7,15.6
					c15.1,3.4,30.6,6.1,46.2,6.2c13.8,0.1,30.1-1.4,41.7-9.6c5.8-4.1,10.2-9.7,14.4-15.4c5.5-7.4,10.8-14.9,16.2-22.3
					c0.4-0.5,0-1.3-0.6-1.5c-1.3-0.3-2.5-0.7-3.8-1c0.2,0.4,0.5,0.8,0.7,1.2c0.4-2.7,0.9-5.4,1.3-8.2c0.1-0.4,0-0.9-0.5-1.1
					c-7-3.3-10.4-10.3-14.5-16.4c-3.8-5.6-8.6-9.8-14.2-13.5c-13.1-8.4-28.2-13.5-43.7-15c-26.4-2.5-55.6,6.4-74.9,24.9
					c-5.1,4.9-9.2,10.5-12.5,16.8c-2.8,5.3-6.5,8.2-11.4,11.5c-4.4,3-8.7,6.1-13.9,7.5C2279.4,272.4,2279.9,274.4,2281.2,274
					L2281.2,274z"/>
			</g>
		</g>
	</g>
	<g>
		<path class="st3" d="M2607,235.1c0,0,42.6,34.4,58.3,18.9c4.9-1.7,13-3.3,16.3,8.7c1.3,4.7-1.3,20.3-20.4,14.8
			c-19.1-5.6-29.9,22.4-48.3,27.6c0,0,0.8-5.9,0.4-9.1c-0.4-3.2-6.3-3.5-5.6-7.7c0.7-4.3,2.8-4.2,3-9c0.2-4.8-10.1-12.7-9.9-16.5
			c0.1-3.8,4,2.8,7.6-5.6C2611.8,248.7,2607,235.1,2607,235.1z"/>
		<path class="st3" d="M2742.2,175.6c16.9,4.9,29.5,17.5,42,30.7c0.9,0.9,0.3,2.6-0.8,2.6c-8.9,0.5-17.8,2.1-26.6,2.1
			c0,0-0.1,0-0.1,0c-15.2,1.7-31.9,3.1-46.1,9.7c-1,0.5-2,1-2.9,1.6c-1.1,0.7-2.4-0.6-1.8-2c0.9-2.1,1.7-4.2,2.1-6.6
			c0.7-4,0.1-8.5-2.2-11.6c-0.4-0.5-0.9-1.1-1.1-1.8c-0.2-1.3,0.9-2.4,2-2.7c1.1-0.2,2.3,0.1,3.5,0.1c3.7,0.1,7.1-3.6,7.2-7.8
			c0-1.3-0.2-2.8,0.6-3.8c0.7-0.9,1.8-1,2.8-1c4.8-0.2,9.6,1.2,14.4,1.2c1.5,0,5.8,0.3,6.8-1.4c1-1.5-1.7-5.2-2.4-7.8
			c-0.3-1,0.4-2,1.3-1.9C2741.4,175.5,2742,175.6,2742.2,175.6z"/>
		<path class="st4" d="M2844.4,254.1C2844.3,254.1,2844.3,254,2844.4,254.1c-0.1-0.2-0.2-0.3-0.3-0.4c-2.2-1.5-4.3-2.7-6-4.8
			c-1.8-2.3-3.2-5-4.4-7.7c-5.4-11.8-35.4-32.7-51.5-35.4c-16.1-2.7-83.1-15-121.2,59.5c0,0,13.4,42.4,95.4,50.4
			c0,0,50.3,5.4,71.3-25.2c2.4-4.2,5-8.3,7.7-12.3c2.5-3.6,5-7,8.2-10c0.7-0.7,1.6-1.3,2.1-2.1c0.4-0.7,0.7-1.5,0.4-2.3
			c-0.3-0.9-1-1.2-1.9-1.2c-0.3,0,0-7.5,0-8.1C2844.4,254.3,2844.4,254.2,2844.4,254.1z"/>
		<g>
			<defs>
				<path id="SVGID_15_" d="M2844.4,254.8C2844.3,254.7,2844.3,254.7,2844.4,254.8c-0.1-0.2-0.2-0.3-0.3-0.4c-2.2-1.5-4.3-2.7-6-4.8
					c-1.8-2.3-3.2-5-4.4-7.7c-5.4-11.8-35.4-32.7-51.5-35.4c-16.1-2.7-83.1-15-121.2,59.5c0,0,13.4,42.4,95.4,50.4
					c0,0,50.3,5.4,71.3-25.2c2.4-4.2,5-8.3,7.7-12.3c2.5-3.6,5-7,8.2-10c0.7-0.7,1.6-1.3,2.1-2.1c0.4-0.7,0.7-1.5,0.4-2.3
					c-0.3-0.9-1-1.2-1.9-1.2c-0.3,0,0-7.5,0-8.1C2844.4,255,2844.4,254.9,2844.4,254.8z"/>
			</defs>
			<clipPath id="SVGID_16_">
				<use xlink:href="#SVGID_15_"  style="overflow:visible;"/>
			</clipPath>
			<polygon class="st14" points="2792.2,198.1 2792.2,337.5 2864.3,337.5 2864.3,195.9 			"/>
		</g>
		<circle class="st6" cx="2815.3" cy="253.2" r="6.2"/>
		<circle cx="2816.6" cy="251.8" r="3.1"/>
		<g>
			<g>
				<path d="M2798.9,213.7c-1.7,2.7-5.4,2.8-7,5.4c-1.2,2-0.8,4.3,0,6.3c0.6,1.5,1.8,2.5,2.5,3.9c1.2,2.4,0.4,4.4-0.3,6.8
					c-0.7,2.2-1.3,3.3-0.7,5.7c0.4,1.4,2.5,0.8,2.1-0.6c-1.3-4.8,2.2-4.2,2.9-7.4c0.4-2-1.1-4.2-2.1-5.7c-0.9-1.3-2.7-3.1-2.7-4.7
					c-0.1-2.6,1.6-4.3,3.5-5.4c1.6-0.9,2.7-1.6,3.7-3.2C2801.5,213.6,2799.6,212.5,2798.9,213.7L2798.9,213.7z"/>
			</g>
		</g>
		<g>
			<g>
				<path d="M2793.5,256.4c-2.2,3.7-4.2,8.3-0.9,12c0.9,1.1,2.5-0.5,1.6-1.6c-2.5-2.9-0.4-6.6,1.2-9.3
					C2796.1,256.2,2794.2,255.1,2793.5,256.4L2793.5,256.4z"/>
			</g>
		</g>
		<g>
			<g>
				<path d="M2792.6,271.7c-4.6,5-3.5,12.5,2.4,15.8c1.2,0.7,2.4-1.2,1.1-1.9c-4.6-2.6-5.6-8.4-2-12.3
					C2795.1,272.2,2793.6,270.7,2792.6,271.7L2792.6,271.7z"/>
			</g>
		</g>
		<g>
			<g>
				<path d="M2794.1,286.8c-0.5,2.6-1.2,4.7-2.6,7c-0.5,0.9-1.3,1.6-1.6,2.6c-0.5,1.3-0.5,1.8-0.4,3.1c0.2,1.9,0.4,3-0.3,5.3
					c-0.5,1.5-1.3,2.1-0.6,3.8c0.8,1.8,2.7,2.5,4.4,3.1c1.3,0.5,1.9-1.6,0.6-2.1c-2-0.7-3.1-1.8-2.1-4.1c0.1-0.2,0.8-0.8,0.9-1.1
					c0.6-1.1,0.4-1.7,0.3-2.9c-0.2-2-0.4,1.5-0.3-3.2c0.1-2.6,0.6-2.8,1.7-4.7c1.1-2,1.6-4.1,2-6.3
					C2796.4,286,2794.3,285.4,2794.1,286.8L2794.1,286.8z"/>
			</g>
		</g>
		<g>
			<g>
				<path d="M2732.8,254.6c-1.7,1.9-3.5,4-3.7,6.6c-0.2,3,1.3,3.7,3,5.6c3.1,3.4,0.7,4.4-1,7.3c-0.8,1.3-2,3-2.4,4.5
					c-0.3,1.1-0.4,1.1-0.2,2c0.2,0.9,2.5,2.4,2.2,3.1c-0.6,1.3,1.3,2.4,1.9,1.1c0.6-1.3,0.2-1.6-0.1-2.9c-0.7-2.6-1.3-3.6,0.1-6.1
					c0.9-1.6,2.1-3.1,3.1-4.7c1-1.7,1.3-2.7,0.1-4.4c-0.3-0.5-0.9-0.7-1.2-1.1c-2.5-1-3.4-3.2-2.6-6.5c0.7-1.1,1.4-2.1,2.3-3.1
					C2735.3,255.1,2733.7,253.5,2732.8,254.6L2732.8,254.6z"/>
			</g>
		</g>
		<g>
			<g>
				<path d="M2756.2,203.8c-4.3,3.6-1.7,6.9,0.7,10.4c0.1-0.5,0.3-1,0.4-1.5c-4.1,1.9-8.9,5.3-10.2,9.9c-0.9,3.3,0.8,5.9,4.1,6.3
					c1.4,0.2,1.4-2,0-2.2c-2.1-2.8-2.1-5.1,0.1-7c0.5-0.6,1-1.1,1.6-1.6c1.6-1.5,3.5-2.6,5.5-3.5c0.5-0.2,0.7-1.1,0.4-1.5
					c-1.6-2.3-3.8-5.5-1.1-7.8C2758.9,204.5,2757.3,202.9,2756.2,203.8L2756.2,203.8z"/>
			</g>
		</g>
		<g>
			<g>
				<path d="M2754.8,229.6c-2.7,1.5-6.2,4.2-6.3,7.6c0,2.4,1.7,3.4,3.3,4.8c1.6,1.4,2,0.8,0.1,2.2c-0.9,0.6-2.1,1-3.1,1.4
					c-1,0.5-2.5,1-3.2,2c-1.6,2.7,0.3,8.4,1,11c0.4,1.4,2.5,0.8,2.1-0.6c-0.6-2.1-2.2-6.3-1.4-8.3c0.8-1.8,2.4-2.2,4.1-3.1
					c1.1-0.5,4-1.2,4.4-2.8c0.3-1.2-0.6-2-1.4-2.8c-0.6-0.6-1.5-0.9-2-1.5c-3.3-3.9,0.4-6.6,3.4-8.2
					C2757.1,230.9,2756,229,2754.8,229.6L2754.8,229.6z"/>
			</g>
		</g>
		<g>
			<g>
				<path d="M2766.8,219c-1.8,2-4.2,5.2-4,8.1c0.2,2.7,4.2,4.2,6.1,5.4c1.2,0.8,2.3-1.1,1.1-1.9c-1.5-1-5-2.3-4.8-4.6
					c0.1-1.9,2-4.1,3.1-5.4C2769.3,219.5,2767.7,218,2766.8,219L2766.8,219z"/>
			</g>
		</g>
		<g>
			<g>
				<path d="M2764.3,234.4c-4.7,1.5-5.4,7.3-1.6,10.1c1.2,0.8,2.3-1.1,1.1-1.9c-2.4-1.7-1.7-5.2,1-6.1
					C2766.2,236.1,2765.6,233.9,2764.3,234.4L2764.3,234.4z"/>
			</g>
		</g>
		<g>
			<g>
				<path d="M2763,247.6c-1.5,1.4-2.9,2.8-4.1,4.4c-0.8,1.1-2.2,2.6-2,4.1c0.4,2.9,5.5,4.9,7.8,5.8c1.3,0.5,1.9-1.6,0.6-2.1
					c-1.8-0.7-6.6-2.5-5.7-4.9c0.8-2.1,3.3-4.2,4.9-5.7C2765.6,248.2,2764.1,246.7,2763,247.6L2763,247.6z"/>
			</g>
		</g>
		<g>
			<g>
				<path d="M2763.9,264.6c0,3.3-4.7,4-6.5,6.1c-1.4,1.6-1.8,3.7-0.7,5.5c0.8,1.2,2.7,0.1,1.9-1.1c-1.9-3,3.4-4.7,5.1-6
					c1.5-1.1,2.4-2.6,2.4-4.5C2766.2,263.2,2763.9,263.2,2763.9,264.6L2763.9,264.6z"/>
			</g>
		</g>
		<g>
			<g>
				<path d="M2708.1,228.3c-2.6,4-7.7,9.3-8,14.2c-0.1,2,1,4.2,0.3,6.2c-0.4,1.2-1.8,2.3-2.4,3.4c-1.2,2-1.8,4.2-1.8,6.6
					c0,2.3,0.5,4.6,1.4,6.7c0.9,2.3,3.3,4.5,3.5,7c0.1,2-1.3,2.8-1.4,4.9c-0.1,2.3,4.3,8.8,1.7,9.9c-1.3,0.5-0.7,2.7,0.6,2.1
					c4.3-1.8,2.4-5,1.4-8.3c-1.3-1.6-1.5-3.5-0.4-5.6c0.3-0.3,0.6-0.6,0.9-0.9c0.2-0.6,0.6-1,0.6-1.7c0-2-2.7-4.2-3.5-5.7
					c-1.9-3.4-3.3-7.7-2.1-11.6c0.9-3,4.2-5.2,4.6-8.4c0.4-3-1.5-3.7-0.2-7.2c1.3-3.6,4.8-7.4,6.8-10.6
					C2710.8,228.2,2708.8,227.1,2708.1,228.3L2708.1,228.3z"/>
			</g>
		</g>
		<g>
			<g>
				<path d="M2693.1,239.4c-1.7,4.9-2.7,9.7,0.9,13.9c0.2-0.6,0.3-1.2,0.5-1.8c-2.6,1.1-6,2-7.7,4.4c-2.2,3-1,5.8-0.5,9
					c0.4,2.9-0.7,3.1-2.2,5c-0.8,1-1.3,2.2-1.5,3.4c-0.5,2.9,0.7,5.4,2.8,7.3c1,1,2.6-0.6,1.6-1.6c-2.3-2.2-2.8-4.9-0.9-7.5
					c0.5-0.7,1.7-1.6,2.2-2.3c0.7-1,1-0.9,1-2.1c0.1-1.5-1.1-3-1.4-4.4c-1.3-5.1,3.2-7.6,7.2-9.2c0.8-0.3,1.1-1.2,0.5-1.8
					c-3-3.5-1.6-7.9-0.3-11.7C2695.7,238.7,2693.5,238.1,2693.1,239.4L2693.1,239.4z"/>
			</g>
		</g>
		<g>
			<g>
				<path d="M2761.4,279.1c-1.5,1.1-2.2,2.7-1.9,4.6c0.1,0.6,0.8,0.9,1.4,0.8c0.6-0.2,0.9-0.8,0.8-1.4c-0.1-0.8,0.3-1.6,0.9-2.1
					c0.5-0.3,0.7-1,0.4-1.5C2762.7,279,2761.9,278.8,2761.4,279.1L2761.4,279.1z"/>
			</g>
		</g>
		<g>
			<g>
				<path d="M2759,290.7c-2,1.8-3.9,3.3-3.4,6c0.1,0.4,0.7,0.7,0.8,1.1c0.5,1.8-0.1,2.8-1.1,4.2c-0.8,1.1-1.7,2.2-1.9,3.6
					c-0.3,2.1,0.7,2.8,2.2,3.9c2.7,2.2,3.7,5,7.4,5.4c1.4,0.1,1.4-2.1,0-2.2c1.4,0.1-5.1-4.3-5.6-4.9c-2.9-3.3,0.2-4.3,1.2-7
					c0.5-1.3,0.4-2.1,0.1-3.4c-0.1-0.5-0.8-0.8-0.9-1.2c-0.2-1.7,1.5-3,2.6-3.9C2761.7,291.4,2760.1,289.8,2759,290.7L2759,290.7z"
					/>
			</g>
		</g>
		<ellipse class="st7" cx="2812.3" cy="276.6" rx="14.2" ry="10"/>
		<g>
			<g>
				<path d="M2642,273.1c8-2.2,15.2-7.7,21.8-12.5c6-4.4,8-11.5,12.2-17.4c9-12.9,22.6-22.1,36.8-28.2c32.2-13.8,69.6-11.7,99.4,7.1
					c4.6,2.9,9,6.2,12.6,10.4c3,3.6,5.2,7.6,7.8,11.5c2.1,3.1,4.3,6.2,7.2,8.6c0.9,0.8,3,1.5,3.6,2.4c1.2,1.9-0.4,6.4-0.7,8.3
					c-0.1,0.6,0.1,1.2,0.8,1.4c1.4,0.4,2.8,0.8,4.2,1.1c-0.2-0.5-0.4-1.1-0.7-1.6c-5.1,7-10.1,13.9-15.2,20.9
					c-4.9,6.7-9.7,13.5-16.3,18.7c-13.3,10.5-33,11.9-49.4,11.4c-17.3-0.4-34.8-3.5-51.6-7.7c-7.2-1.8-14.3-4-20.8-7.4
					c-6.7-3.6-11.5-8.4-16.3-14.1c-4.6-5.6-9.7-8.7-17-9.3c-9.2-0.8-18.8,0.9-27.7,3.3c-1.4,0.4-0.8,2.5,0.6,2.1
					c8.7-2.4,18.1-4,27.1-3.2c10.5,0.9,14.2,8.4,20.9,15c9.9,9.8,23.9,13.9,37.1,16.9c16.5,3.7,33.5,6.6,50.5,6.7
					c15.2,0.1,33-1.4,45.8-10.4c6.4-4.5,11.3-10.6,15.9-16.8c6.1-8.3,12.1-16.6,18.1-24.9c0.4-0.6,0-1.4-0.7-1.6
					c-1.4-0.4-2.8-0.8-4.2-1.1c0.3,0.5,0.5,0.9,0.8,1.4c0.5-3,0.9-6,1.4-9c0.1-0.5,0-1-0.5-1.2c-7.7-3.6-11.4-11.2-15.9-18
					c-4.5-6.7-10.4-11.7-17.2-15.9c-14.3-8.9-30.8-14.3-47.6-15.7c-29-2.5-61.1,7.4-82.2,27.9c-6,5.8-10.2,12.3-14.2,19.6
					c-2.9,5.4-7.4,8.2-12.4,11.5c-4.7,3.2-9.3,6.4-14.8,7.9C2640,271.3,2640.6,273.5,2642,273.1L2642,273.1z"/>
			</g>
		</g>
	</g>
	<g>
		<path class="st3" d="M2995.7,238.8c0,0,38.8,31.3,53,17.2c4.4-1.6,11.8-3,14.8,7.9c1.2,4.2-1.2,18.5-18.6,13.4
			c-17.4-5.1-27.1,20.4-43.9,25.1c0,0,0.7-5.3,0.3-8.3c-0.4-2.9-5.7-3.2-5.1-7c0.6-3.9,2.6-3.8,2.8-8.2c0.2-4.4-9.2-11.6-9-15
			c0.1-3.4,3.7,2.6,6.9-5.1C3000.1,251.1,2995.7,238.8,2995.7,238.8z"/>
		<path class="st3" d="M3118.6,184.7c15.3,4.5,26.8,15.9,38.2,27.9c0.8,0.8,0.3,2.3-0.8,2.4c-8.1,0.5-16.2,1.9-24.2,1.9
			c0,0-0.1,0-0.1,0c-13.8,1.5-29,2.8-41.9,8.8c-0.9,0.4-1.8,0.9-2.7,1.4c-1,0.6-2.2-0.6-1.7-1.8c0.8-1.9,1.6-3.9,1.9-6
			c0.6-3.6,0.1-7.7-2-10.5c-0.4-0.5-0.8-1-1-1.6c-0.2-1.2,0.8-2.2,1.9-2.4c1-0.2,2.1,0.1,3.1,0.1c3.4,0.1,6.5-3.3,6.6-7.1
			c0-1.2-0.2-2.5,0.5-3.4c0.6-0.8,1.6-0.9,2.5-0.9c4.4-0.2,8.7,1.1,13.1,1.1c1.4,0,5.3,0.2,6.2-1.2c0.9-1.4-1.6-4.8-2.2-7.1
			c-0.2-0.9,0.4-1.8,1.2-1.7C3117.9,184.6,3118.5,184.7,3118.6,184.7z"/>
		<path class="st4" d="M3211.4,256C3211.4,256,3211.4,256,3211.4,256c-0.1-0.2-0.2-0.3-0.3-0.3c-2-1.4-3.9-2.4-5.4-4.4
			c-1.6-2.1-2.9-4.6-4-7c-4.9-10.7-32.2-29.7-46.8-32.2c-14.6-2.4-75.5-13.6-110.1,54.1c0,0,12.2,38.5,86.7,45.8
			c0,0,45.7,4.9,64.8-22.9c2.2-3.8,4.5-7.5,7-11.1c2.2-3.3,4.5-6.4,7.5-9.1c0.7-0.6,1.4-1.2,1.9-2c0.4-0.6,0.6-1.4,0.4-2.1
			c-0.3-0.8-0.9-1.1-1.7-1.1c-0.2,0,0-6.8,0-7.4C3211.5,256.3,3211.5,256.1,3211.4,256z"/>
		<g>
			<defs>
				<path id="SVGID_17_" d="M3211.4,256.6C3211.4,256.6,3211.4,256.6,3211.4,256.6c-0.1-0.2-0.2-0.3-0.3-0.3c-2-1.4-3.9-2.4-5.4-4.4
					c-1.6-2.1-2.9-4.6-4-7c-4.9-10.7-32.2-29.7-46.8-32.2s-75.5-13.6-110.1,54.1c0,0,12.2,38.5,86.7,45.8c0,0,45.7,4.9,64.8-22.9
					c2.2-3.8,4.5-7.5,7-11.1c2.2-3.3,4.5-6.4,7.5-9.1c0.7-0.6,1.4-1.2,1.9-2c0.4-0.6,0.6-1.4,0.4-2.1c-0.3-0.8-0.9-1.1-1.7-1.1
					c-0.2,0,0-6.8,0-7.4C3211.5,256.9,3211.5,256.8,3211.4,256.6z"/>
			</defs>
			<clipPath id="SVGID_18_">
				<use xlink:href="#SVGID_17_"  style="overflow:visible;"/>
			</clipPath>
			<polygon class="st15" points="3164.1,205.2 3164.1,331.8 3229.5,331.8 3229.5,203.1 			"/>
		</g>
		<circle class="st6" cx="3185" cy="255.2" r="5.6"/>
		<circle cx="3186.2" cy="253.9" r="2.8"/>
		<g>
			<g>
				<path d="M3170.1,219.3c-2.7,4.2-8.9,3.5-6.6,10c1.3,3.8,4.5,4.7,2.7,9.7c-0.9,2.3-1.8,3.1-1.1,5.8c0.3,1.3,2.2,0.7,1.9-0.5
					c-1-4.2,2-4,2.6-6.7c0.4-1.9-1.1-3.9-2-5.3c-0.7-1.1-2.4-2.9-2.4-4.2c0-2.2,1.7-3.8,3.2-4.9c1.5-1,2.4-1.3,3.4-2.9
					C3172.5,219.2,3170.8,218.2,3170.1,219.3L3170.1,219.3z"/>
			</g>
		</g>
		<g>
			<g>
				<path d="M3165.2,258.1c-2,3.4-3.8,7.5-0.8,10.9c0.9,1,2.3-0.5,1.4-1.4c-2.3-2.6-0.3-6,1.1-8.5
					C3167.6,258,3165.9,257,3165.2,258.1L3165.2,258.1z"/>
			</g>
		</g>
		<g>
			<g>
				<path d="M3164.4,272c-4.2,4.5-3.2,11.3,2.2,14.4c1.1,0.6,2.1-1.1,1-1.7c-4.2-2.4-5.1-7.6-1.8-11.2
					C3166.7,272.5,3165.3,271.1,3164.4,272L3164.4,272z"/>
			</g>
		</g>
		<g>
			<g>
				<path d="M3165.7,285.8c-0.4,2.3-1.1,4.3-2.3,6.3c-0.5,0.8-1.2,1.5-1.5,2.4c-0.4,1.1-0.5,1.6-0.3,2.8c0.2,1.8,0.4,2.8-0.3,4.8
					c-0.5,1.3-1.2,1.9-0.5,3.5c0.7,1.6,2.5,2.3,4,2.9c1.2,0.4,1.7-1.5,0.5-1.9c-1.8-0.7-2.9-1.6-1.9-3.7c0.1-0.2,0.7-0.8,0.9-1
					c0.6-1,0.4-1.5,0.3-2.6c-0.2-1.9-0.3,1.4-0.2-2.9c0.1-2.3,0.5-2.5,1.5-4.3c1-1.8,1.4-3.7,1.8-5.8
					C3167.9,285.1,3166,284.5,3165.7,285.8L3165.7,285.8z"/>
			</g>
		</g>
		<g>
			<g>
				<path d="M3110.1,256.5c-3.4,4-4.3,6.7-1.2,10.7c2.6,3.3,2,3.3,0.2,6.3c-0.8,1.4-2.1,3.1-2.5,4.7c-0.2,0.6-0.4,1.1-0.3,1.7
					c0.1,0.9,2.1,2.8,2,3.3c-0.3,1.3,1.7,1.8,1.9,0.5c0.4-1.9-0.2-1.4-0.8-3c-1.5-4.3,2.5-6.3,3.7-9.8c0.4-1.1,0.7-1.7,0-3
					c-0.3-0.6-1-0.9-1.4-1.4c-0.4-0.2-0.8-0.5-1.2-0.7c-1.9-3.2-1.6-5.9,1-8C3112.3,256.9,3110.9,255.5,3110.1,256.5L3110.1,256.5z"
					/>
			</g>
		</g>
		<g>
			<g>
				<path d="M3131.4,210.4c-3.9,3.3-1.5,6.3,0.7,9.5c0.1-0.5,0.2-0.9,0.4-1.4c-3.7,1.7-8.1,4.8-9.2,9c-0.8,3,0.7,5.4,3.7,5.8
					c1.3,0.2,1.3-1.8,0-2c-1.9-2.5-1.9-4.6,0.1-6.4c0.4-0.5,0.9-1,1.4-1.5c1.5-1.4,3.1-2.3,5-3.2c0.5-0.2,0.6-1,0.4-1.4
					c-1.4-2.1-3.4-5-1-7.1C3133.8,211,3132.4,209.5,3131.4,210.4L3131.4,210.4z"/>
			</g>
		</g>
		<g>
			<g>
				<path d="M3130,233.8c-4.8,2.7-7.7,7-3,11c1.2,1,1.8,0.9,1.1,1.9c-0.4,0.5-2.2,1-2.8,1.3c-1.1,0.5-3,1.1-3.6,2.2
					c-1.5,2.5,0.3,7.5,0.9,10c0.3,1.2,2.3,0.7,1.9-0.5c-0.5-1.8-1.3-4-1.2-5.9c0.2-3.4,1.2-3.2,3.6-4.4c1-0.5,3.5-1.1,3.9-2.4
					c0.2-0.8,0-1.3-0.5-1.9c-0.4-0.6-1.1-0.8-1.5-1.3c-3.7-4-1.7-6.1,2.1-8.2C3132.2,234.9,3131.2,233.2,3130,233.8L3130,233.8z"/>
			</g>
		</g>
		<g>
			<g>
				<path d="M3140.9,224.2c-1.6,1.8-3.8,4.8-3.6,7.4c0.2,2.5,3.8,3.8,5.5,4.9c1.1,0.7,2.1-1,1-1.7c-1.4-0.9-4.5-2.1-4.3-4.2
					c0.1-1.7,1.8-3.7,2.9-4.9C3143.2,224.6,3141.8,223.2,3140.9,224.2L3140.9,224.2z"/>
			</g>
		</g>
		<g>
			<g>
				<path d="M3138.7,238.1c-4.2,1.3-5,6.6-1.4,9.2c1,0.8,2-1,1-1.7c-2.2-1.6-1.5-4.7,0.9-5.5
					C3140.4,239.6,3139.9,237.7,3138.7,238.1L3138.7,238.1z"/>
			</g>
		</g>
		<g>
			<g>
				<path d="M3137.5,250.1c-1.4,1.2-2.6,2.6-3.7,4c-0.7,1-2,2.3-1.8,3.7c0.3,2.6,5,4.4,7.1,5.2c1.2,0.5,1.7-1.5,0.5-1.9
					c-1.6-0.6-6-2.3-5.2-4.4c0.7-1.9,3-3.8,4.5-5.2C3139.9,250.7,3138.5,249.3,3137.5,250.1L3137.5,250.1z"/>
			</g>
		</g>
		<g>
			<g>
				<path d="M3138.4,265.6c0,3-4.3,3.6-5.9,5.5c-1.3,1.4-1.7,3.4-0.6,5c0.7,1.1,2.4,0.1,1.7-1c-1.7-2.7,3.1-4.3,4.6-5.5
					c1.3-1,2.2-2.4,2.2-4.1C3140.4,264.3,3138.4,264.3,3138.4,265.6L3138.4,265.6z"/>
			</g>
		</g>
		<g>
			<g>
				<path d="M3087.6,232.6c-2.4,3.7-6.9,8.4-7.3,12.9c0.6,1.3,0.6,2.6,0.2,3.9c0.2,1.5-0.2,2.7-1.2,3.6c-0.5,0.9-1.2,1.6-1.6,2.6
					c-0.8,1.8-1,3.8-0.9,5.7c0.1,1.6,0.5,3.2,1.1,4.6c0.9,2.4,4,5.4,3.5,8.1c-0.2,1-1.4,1.5-1.6,2.9c-0.2,2,3.9,8.2,1.6,9.2
					c-1.2,0.5-0.7,2.4,0.5,1.9c3.1-1.3,2.6-3.5,2-6.2c-0.2-0.4-0.5-0.8-0.7-1.3c-1.4-2.5-1.3-4.5,0.5-5.9c0.1-0.3,0.3-0.6,0.4-0.9
					c0.4-1.6-0.8-2.5-1.6-3.8c-2-3-3.8-6.2-3.7-9.9c0.1-3.8,2.8-5.5,4-8.7c1.1-2.9-0.8-5.1,0.3-8.1c1.2-3.2,4.3-6.7,6.2-9.6
					C3090,232.5,3088.3,231.5,3087.6,232.6L3087.6,232.6z"/>
			</g>
		</g>
		<g>
			<g>
				<path d="M3074,242.7c-1.5,4.5-2.4,8.7,0.8,12.6c0.1-0.6,0.3-1.1,0.4-1.7c-6.4,2.6-9,4.8-7.6,11.8c0.5,2.6,0.1,2.3-1.3,4.2
					c-0.7,1-1.4,1.8-1.7,2.9c-0.9,2.9,0.3,5.5,2.4,7.5c0.9,0.9,2.3-0.5,1.4-1.4c-7.9-7.8,0.5-6.4,1.9-9.7c0.3-0.7,0.3-0.7,0.3-1.6
					c0-1.3-1.2-2.6-1.4-4c-0.6-5.7,3-6.4,6.6-7.9c0.7-0.3,1-1.1,0.4-1.7c-2.8-3.5-1.5-7.1-0.3-10.6
					C3076.3,242,3074.4,241.5,3074,242.7L3074,242.7z"/>
			</g>
		</g>
		<g>
			<g>
				<path d="M3136.1,278.8c-1.4,1-2,2.5-1.7,4.2c0.1,0.5,0.8,0.8,1.2,0.7c0.6-0.2,0.8-0.7,0.7-1.2c-0.1-0.7,0.3-1.5,0.8-1.9
					c0.4-0.3,0.7-0.9,0.4-1.4C3137.2,278.7,3136.6,278.5,3136.1,278.8L3136.1,278.8z"/>
			</g>
		</g>
		<g>
			<g>
				<path d="M3133.9,289.3c-1.8,1.6-3.6,3-3,5.4c0.1,0.4,0.6,0.6,0.7,1c0.5,1.7-0.1,2.5-1,3.8c-0.7,1-1.6,2-1.7,3.3
					c-0.3,1.9,0.7,2.5,2,3.6c2.5,2,3.4,4.6,6.8,4.9c1.3,0.1,1.3-1.9,0-2c1.3,0.1-4.6-3.9-5.1-4.4c-2.6-3,0.1-3.9,1.1-6.3
					c0.5-1.2,0.3-1.9,0.1-3.1c-0.1-0.4-0.7-0.7-0.8-1.1c-0.2-1.6,1.3-2.7,2.3-3.6C3136.3,289.9,3134.9,288.5,3133.9,289.3
					L3133.9,289.3z"/>
			</g>
		</g>
		<ellipse class="st7" cx="3182.3" cy="276.5" rx="12.9" ry="9.1"/>
		<g>
			<g>
				<path d="M3027.5,273.3c7.4-2.1,14.4-7.2,20.4-11.9c4.9-3.7,6.7-9.8,10-14.7c8-11.8,20.3-20.3,33.3-26c29.8-13.1,64.9-11,92.2,7
					c7.9,5.2,12.3,11.8,17.5,19.5c1.8,2.7,3.8,5.4,6.4,7.4c1,0.8,2.8,1.4,3.3,2.6c0.7,1.8-0.5,5.1-0.8,7.1c-0.1,0.5,0.1,1.1,0.7,1.2
					c1.3,0.3,2.5,0.7,3.8,1c-0.2-0.5-0.4-1-0.6-1.5c-5.7,7.9-11.4,15.9-17.3,23.7c-6.3,8.4-13.4,15.4-23.6,18.7
					c-19.7,6.4-41.6,4.3-61.6,0.7c-17.2-3.1-37.1-6.3-49.1-20.2c-4.9-5.7-8.6-10.4-16.5-11.4c-8.8-1.2-18.3,0.5-26.7,2.8
					c-1.2,0.3-0.7,2.3,0.5,1.9c7.9-2.1,16.4-3.6,24.7-2.9c9.2,0.8,12.8,7.3,18.7,13.3c8.9,9.1,21.7,12.9,33.8,15.6
					c15.1,3.4,30.5,6.1,46,6.2c13.9,0.1,30.3-1.3,42-9.6c5.8-4.1,10.3-9.7,14.5-15.4c5.5-7.4,10.8-14.9,16.3-22.4
					c0.4-0.5,0-1.3-0.6-1.5c-1.3-0.3-2.5-0.7-3.8-1c0.2,0.4,0.5,0.8,0.7,1.2c0.4-2.7,0.9-5.5,1.3-8.2c0.1-0.4,0-0.9-0.5-1.1
					c-7.1-3.3-10.4-10.3-14.6-16.5c-3.8-5.6-8.6-9.8-14.3-13.5c-13.1-8.5-28.3-13.6-43.8-15c-26.5-2.5-55.7,6.4-75.1,24.9
					c-5.1,4.9-9.3,10.5-12.6,16.8c-2.8,5.3-6.5,8.2-11.4,11.5c-4.4,3-8.7,6.1-13.9,7.6C3025.8,271.7,3026.3,273.6,3027.5,273.3
					L3027.5,273.3z"/>
			</g>
		</g>
	</g>
	<g>
		<path class="st3" d="M3385.2,240.8c0,0,39.6,31.3,54.1,17.2c4.5-1.6,12.1-3,15.1,7.9c1.2,4.2-1.2,18.5-19,13.4
			c-17.7-5.1-27.7,20.4-44.8,25.1c0,0,0.7-5.3,0.3-8.3c-0.4-2.9-5.8-3.2-5.2-7c0.7-3.9,2.6-3.8,2.8-8.2c0.2-4.4-9.3-11.6-9.2-15
			c0.1-3.4,3.7,2.6,7-5.1C3389.7,253.1,3385.2,240.8,3385.2,240.8z"/>
		<path class="st3" d="M3506,186.7c15.7,4.5,27.4,15.9,39,27.9c0.8,0.8,0.3,2.3-0.8,2.4c-8.2,0.5-16.5,1.9-24.7,1.9c0,0-0.1,0-0.1,0
			c-14.1,1.5-29.6,2.8-42.8,8.8c-0.9,0.4-1.8,0.9-2.7,1.4c-1.1,0.6-2.2-0.6-1.7-1.8c0.8-1.9,1.6-3.9,2-6c0.6-3.6,0.1-7.7-2.1-10.5
			c-0.4-0.5-0.9-1-1-1.6c-0.2-1.2,0.8-2.2,1.9-2.4c1.1-0.2,2.1,0.1,3.2,0.1c3.4,0.1,6.6-3.3,6.7-7.1c0-1.2-0.2-2.5,0.5-3.4
			c0.6-0.8,1.6-0.9,2.6-0.9c4.5-0.2,8.9,1.1,13.4,1.1c1.4,0,5.4,0.2,6.3-1.2c0.9-1.4-1.6-4.8-2.2-7.1c-0.2-0.9,0.4-1.8,1.3-1.7
			C3505.2,186.6,3505.8,186.7,3506,186.7z"/>
		<path class="st4" d="M3605.4,258C3605.4,258,3605.4,258,3605.4,258c-0.1-0.2-0.2-0.3-0.3-0.3c-2-1.4-4-2.4-5.6-4.4
			c-1.7-2.1-2.9-4.6-4.1-7c-5-10.7-32.8-29.7-47.7-32.2c-14.9-2.4-77.1-13.6-112.4,54.1c0,0,12.4,38.5,88.5,45.8
			c0,0,46.6,4.9,66.1-22.9c2.3-3.8,4.6-7.5,7.2-11.1c2.3-3.3,4.6-6.4,7.7-9.1c0.7-0.6,1.4-1.2,1.9-2c0.4-0.6,0.6-1.4,0.4-2.1
			c-0.3-0.8-0.9-1.1-1.7-1.1c-0.2,0,0-6.8,0-7.4C3605.4,258.3,3605.4,258.1,3605.4,258z"/>
		<g>
			<defs>
				<path id="SVGID_19_" d="M3605.4,258.6C3605.4,258.6,3605.4,258.6,3605.4,258.6c-0.1-0.2-0.2-0.3-0.3-0.3c-2-1.4-4-2.4-5.6-4.4
					c-1.7-2.1-2.9-4.6-4.1-7c-5-10.7-32.8-29.7-47.7-32.2c-14.9-2.4-77.1-13.6-112.4,54.1c0,0,12.4,38.5,88.5,45.8
					c0,0,46.6,4.9,66.1-22.9c2.3-3.8,4.6-7.5,7.2-11.1c2.3-3.3,4.6-6.4,7.7-9.1c0.7-0.6,1.4-1.2,1.9-2c0.4-0.6,0.6-1.4,0.4-2.1
					c-0.3-0.8-0.9-1.1-1.7-1.1c-0.2,0,0-6.8,0-7.4C3605.4,258.9,3605.4,258.8,3605.4,258.6z"/>
			</defs>
			<clipPath id="SVGID_20_">
				<use xlink:href="#SVGID_19_"  style="overflow:visible;"/>
			</clipPath>
			<polygon class="st16" points="3557,207.2 3557,333.8 3623.8,333.8 3623.8,205.1 			"/>
		</g>
		<ellipse class="st6" cx="3578.4" cy="257.2" rx="5.7" ry="5.6"/>
		<ellipse cx="3579.6" cy="255.9" rx="2.9" ry="2.8"/>
		<g>
			<g>
				<path d="M3563.2,221.3c-2.4,3.9-8.6,3.3-6.9,9.4c1.1,4.2,4.6,5,3,10.3c-0.7,2.3-1.8,3.1-1.1,5.9c0.3,1.3,2.3,0.7,2-0.5
					c-0.8-3.2,2.5-4.6,2.7-7.3c0.1-2-1.5-3.8-2.5-5.3c-2.1-3.3-2.4-6.4,1.3-8.4c1.5-0.8,2.5-1.4,3.4-2.9
					C3565.6,221.2,3563.9,220.2,3563.2,221.3L3563.2,221.3z"/>
			</g>
		</g>
		<g>
			<g>
				<path d="M3558.2,260.1c-2,3.4-3.9,7.6-0.8,10.9c0.9,1,2.3-0.5,1.4-1.4c-2.3-2.6-0.3-6,1.1-8.5
					C3560.6,260,3558.9,259,3558.2,260.1L3558.2,260.1z"/>
			</g>
		</g>
		<g>
			<g>
				<path d="M3557.4,274c-4.3,4.5-3.2,11.4,2.3,14.4c1.1,0.6,2.2-1.1,1-1.7c-4.3-2.4-5.2-7.6-1.8-11.2
					C3559.7,274.5,3558.3,273.1,3557.4,274L3557.4,274z"/>
			</g>
		</g>
		<g>
			<g>
				<path d="M3558.7,287.8c-0.5,2.3-1.1,4.3-2.4,6.3c-0.5,0.8-1.2,1.5-1.5,2.4c-0.4,1.1-0.5,1.6-0.4,2.8c0.2,1.8,0.4,2.7-0.3,4.8
					c-0.5,1.3-1.2,1.9-0.5,3.5c0.7,1.7,2.6,2.3,4.1,2.9c1.2,0.4,1.8-1.5,0.5-2c-1.8-0.7-2.9-1.6-1.9-3.7c0.1-0.2,0.8-0.8,0.9-1
					c0.6-1,0.4-1.5,0.3-2.6c-0.2-1.9-0.3,1.4-0.2-2.9c0.1-2.3,0.5-2.5,1.5-4.3c1-1.8,1.5-3.7,1.8-5.8
					C3560.9,287.1,3559,286.5,3558.7,287.8L3558.7,287.8z"/>
			</g>
		</g>
		<g>
			<g>
				<path d="M3501.9,258.5c-3.5,4-4.4,6.7-1.2,10.8c2.6,3.3,2.1,3.3,0.2,6.3c-0.9,1.4-2.2,3.1-2.6,4.7c-0.2,0.6-0.4,1.1-0.3,1.7
					c0.1,0.9,2.2,2.8,2,3.3c-0.3,1.3,1.7,1.8,2,0.5c0.4-1.9-0.2-1.4-0.8-3c-1.5-4.3,2.5-6.3,3.8-9.8c0.4-1.1,0.7-1.7,0-3
					c-0.3-0.6-1-0.9-1.4-1.4c-0.4-0.2-0.8-0.5-1.3-0.7c-1.9-3.3-1.6-5.9,1-8C3504.2,258.9,3502.8,257.5,3501.9,258.5L3501.9,258.5z"
					/>
			</g>
		</g>
		<g>
			<g>
				<path d="M3523.7,212.4c-4,3.2-1.6,6.3,0.7,9.5c0.1-0.5,0.2-0.9,0.4-1.4c-3.7,1.7-7.8,4.6-9.3,8.5c-1.2,3.1,0.3,5.9,3.6,6.3
					c1.3,0.2,1.3-1.9,0-2c-5.2-0.7,0.7-7.1,1.7-8c1.5-1.3,3.1-2.2,4.9-3.1c0.5-0.2,0.7-1,0.4-1.4c-1.4-2-3.5-5-1-7
					C3526.1,213,3524.7,211.5,3523.7,212.4L3523.7,212.4z"/>
			</g>
		</g>
		<g>
			<g>
				<path d="M3522.3,235.8c-4.8,2.7-7.9,7-3.1,11c1.2,1,1.9,0.9,1.2,1.9c-0.4,0.6-2.2,1-2.8,1.3c-1.1,0.5-3,1-3.7,2.2
					c-1.5,2.5,0.3,7.5,1,10c0.3,1.3,2.3,0.7,2-0.5c-0.5-1.8-1.3-4-1.2-5.9c0.2-3.4,1.3-3.2,3.7-4.3c1-0.5,3.6-1.1,4-2.4
					c0.2-0.8,0-1.3-0.5-2c-0.4-0.6-1.1-0.8-1.6-1.3c-3.8-4-1.8-6,2.1-8.2C3524.5,236.9,3523.4,235.2,3522.3,235.8L3522.3,235.8z"/>
			</g>
		</g>
		<g>
			<g>
				<path d="M3533.4,226.1c-1.6,1.8-3.9,4.7-3.7,7.4c0.2,2.5,3.9,3.8,5.6,4.9c1.1,0.7,2.1-1.1,1-1.7c-1.4-0.9-4.6-2.1-4.4-4.2
					c0.1-1.7,1.9-3.7,2.9-4.9C3535.7,226.6,3534.3,225.2,3533.4,226.1L3533.4,226.1z"/>
			</g>
		</g>
		<g>
			<g>
				<path d="M3531.1,240.1c-4.3,1.3-5.1,6.6-1.4,9.2c1.1,0.8,2.1-1,1-1.7c-2.2-1.6-1.6-4.7,1-5.5
					C3532.9,241.7,3532.3,239.7,3531.1,240.1L3531.1,240.1z"/>
			</g>
		</g>
		<g>
			<g>
				<path d="M3529.9,252.1c-1.4,1.2-2.7,2.6-3.8,4c-0.8,1-2,2.3-1.8,3.7c0.4,2.7,5.1,4.4,7.2,5.2c1.2,0.5,1.8-1.5,0.5-2
					c-1.6-0.6-6.1-2.3-5.3-4.4c0.7-1.9,3.1-3.9,4.6-5.2C3532.3,252.7,3530.9,251.3,3529.9,252.1L3529.9,252.1z"/>
			</g>
		</g>
		<g>
			<g>
				<path d="M3530.8,267.6c0,3-4.4,3.7-6.1,5.5c-1.3,1.4-1.7,3.4-0.6,5c0.7,1.1,2.5,0.1,1.7-1c-1.8-2.7,3.2-4.3,4.7-5.5
					c1.4-1,2.2-2.4,2.3-4.1C3532.8,266.3,3530.8,266.3,3530.8,267.6L3530.8,267.6z"/>
			</g>
		</g>
		<g>
			<g>
				<path d="M3479,234.6c-2.5,3.8-7,8.3-7.4,12.9c-0.2,2,0.7,4.3-0.1,6.3c-0.5,1.3-1.9,2.4-2.5,3.7c-0.8,1.6-1,3.4-1,5.2
					c0.1,1.8,0.5,3.6,1.2,5.3c0.9,2.3,3.1,4.3,3.3,6.7c0.2,2-1.1,2.3-1.3,4.3c-0.2,2,3.9,8.2,1.6,9.2c-1.2,0.5-0.7,2.4,0.5,2
					c3.2-1.3,2.7-3.4,2-6.2c-0.9-1.1-1.2-2.4-0.9-3.8c-0.7-1.5-0.5-2.6,0.6-3.4c0.2-0.7,0.5-0.3,0.6-1.5c0-1.6-1.9-3.2-2.6-4.3
					c-2.2-3.2-3.7-7.4-2.6-11.3c0.8-2.8,3.7-4.7,4.2-7.6c0.3-1.8-0.5-3.2-0.3-5c0.4-3.9,4.3-8.1,6.5-11.4
					C3481.4,234.5,3479.7,233.5,3479,234.6L3479,234.6z"/>
			</g>
		</g>
		<g>
			<g>
				<path d="M3465.1,244.7c-1.5,4.4-2.5,8.8,0.8,12.6c0.1-0.6,0.3-1.1,0.4-1.7c-2.4,0.9-5.5,1.8-7.1,3.9c-2,2.6-1.1,5.1-0.7,8
					c0.6,3.9-2.1,3.8-3.1,7.1c-0.9,2.9,0.3,5.5,2.4,7.5c0.9,0.9,2.4-0.5,1.4-1.4c-6.6-6.4,1.8-7,2.2-11.2c0.1-0.6-1.5-4.3-1.4-4
					c-0.7-5.7,3.2-6.5,6.8-7.9c0.7-0.3,1-1.1,0.4-1.7c-2.8-3.2-1.5-7.1-0.3-10.6C3467.4,244,3465.5,243.5,3465.1,244.7L3465.1,244.7
					z"/>
			</g>
		</g>
		<g>
			<g>
				<path d="M3528.5,280.8c-1.4,1-2,2.5-1.8,4.2c0.1,0.5,0.8,0.8,1.2,0.7c0.6-0.2,0.8-0.7,0.7-1.2c-0.1-0.7,0.3-1.5,0.8-1.9
					C3530.6,281.8,3529.6,280,3528.5,280.8L3528.5,280.8z"/>
			</g>
		</g>
		<g>
			<g>
				<path d="M3526.3,291.3c-1.9,1.7-3.6,3-3.1,5.6c0.1,0.3,0.6,0.5,0.7,0.8c0.7,2.2-0.3,2.7-1.3,4.2c-0.6,0.9-1.3,1.8-1.5,3
					c-0.3,2.5,1.4,2.6,3,3.8c2.5,1.8,2.4,4.2,6,4.6c1.3,0.1,1.3-1.9,0-2c0.4,0-3.7-3.3-4.5-4.1c-0.3-0.1-0.6-0.3-0.9-0.4
					c-1-1.7-1-3.1,0.1-4.2c0.3-0.7,1-1.3,1.3-2c0.5-1.2,0.3-1.9,0.1-3.1c-0.1-0.4-0.8-0.7-0.8-1.1c-0.2-1.6,1.4-2.7,2.4-3.5
					C3528.7,291.9,3527.2,290.5,3526.3,291.3L3526.3,291.3z"/>
			</g>
		</g>
		<ellipse class="st7" cx="3575.6" cy="278.5" rx="13.1" ry="9.1"/>
		<g>
			<g>
				<path d="M3417.6,275.3c7.2-2,13.5-6.8,19.6-11c5.5-3.8,7.4-9.6,11.1-15c8.3-12.3,21.3-21.1,34.8-26.8
					c30.1-12.7,65.2-10.8,93,6.8c8.1,5.1,12.9,11.6,18.2,19.3c2,2.9,4.1,5.8,6.9,8c1,0.8,2.9,1.5,3.3,2.6c0.8,1.8-0.5,5.2-0.8,7.1
					c-0.1,0.5,0.1,1.1,0.7,1.2c1.3,0.3,2.6,0.7,3.9,1c-0.2-0.5-0.4-1-0.6-1.5c-4.7,6.3-9.4,12.6-14,18.9
					c-4.7,6.3-9.5,12.9-15.9,17.6c-12.7,9.3-31.2,10.3-46.4,9.8c-16-0.5-32.2-3.4-47.8-7.2c-6.6-1.6-13.2-3.7-19.1-7
					c-6.2-3.4-10.4-8.2-15-13.3c-10-11.3-27.5-7.9-40.6-4.4c-1.3,0.3-0.7,2.3,0.5,2c8.1-2.1,16.8-3.6,25.2-2.9
					c9.8,0.8,13.2,7.7,19.5,13.8c9,8.6,21.5,12.4,33.4,15c15.6,3.5,31.6,6.2,47.6,6.3c13.9,0.1,30.3-1.2,42.2-9.2
					c6.2-4.1,11-10,15.4-15.9c5.6-7.4,11.1-14.9,16.6-22.4c0.4-0.5,0-1.3-0.6-1.5c-1.3-0.3-2.6-0.7-3.9-1c0.2,0.4,0.5,0.8,0.7,1.2
					c0.4-2.7,0.9-5.5,1.3-8.2c0.1-0.4,0-0.9-0.5-1.1c-7.4-3.4-10.8-10.7-15.3-17.1c-4-5.6-9.1-9.8-14.9-13.3
					c-13.4-8.3-28.7-13.2-44.4-14.6c-27.1-2.4-57.2,6.6-77,25.7c-5.4,5.2-9.2,11-12.8,17.5c-2.6,4.7-6.4,7.2-10.8,10
					c-4.6,3-9,6.2-14.4,7.7C3415.9,273.7,3416.4,275.6,3417.6,275.3L3417.6,275.3z"/>
			</g>
		</g>
	</g>
</g>
</svg>
