<?xml version="1.0" encoding="UTF-8" standalone="no"?>
<svg width="20px" height="18px" viewBox="0 0 20 18" version="1.1" xmlns="http://www.w3.org/2000/svg" xmlns:xlink="http://www.w3.org/1999/xlink">
    <!-- Generator: Sketch 50.2 (55047) - http://www.bohemiancoding.com/sketch -->
    <title>Twitter_White</title>
    <desc>Created with Sketch.</desc>
    <defs></defs>
    <g id="Symbols" stroke="none" stroke-width="1" fill="none" fill-rule="evenodd">
        <g id="socialIcons" transform="translate(-51.000000, -2.000000)" fill="#FFFFFF">
            <g id="Twitter">
                <path d="M71.00323,4.1300252 C70.2682401,4.49131075 69.4768932,4.73563334 68.6468009,4.84479876 C69.4945048,4.28337662 70.1449591,3.39315864 70.4514005,2.3326946 C69.6577054,2.85252992 68.7806489,3.23071011 67.8437129,3.43344588 C67.096982,2.55102543 66.0297204,2 64.8485706,2 C62.5837217,2 60.7462471,4.03385567 60.7462471,6.54206106 C60.7462471,6.89814825 60.7814703,7.24383874 60.8519166,7.57653334 C57.441141,7.38679345 54.4178202,5.58036573 52.3924887,2.82913733 C52.0390831,3.50232406 51.837137,4.28337662 51.837137,5.11511312 C51.837137,6.69021413 52.5615599,8.0807736 53.6628706,8.89561545 C52.9912824,8.87352245 52.3572656,8.66688791 51.8030879,8.32899496 L51.8030879,8.38487725 C51.8030879,10.5863798 53.2178847,12.4226981 55.096453,12.8385663 C54.7524402,12.9451326 54.3896417,12.9984157 54.0151021,12.9984157 C53.7509284,12.9984157 53.4926253,12.9711243 53.2425409,12.9178412 C53.7650177,14.7216697 55.2796134,16.0355535 57.0759943,16.0706424 C55.6717645,17.2896562 53.9012139,18.0161261 51.9792037,18.0161261 C51.6481061,18.0161261 51.3205307,17.9953326 51,17.9537458 C52.8163407,19.2403382 54.974346,19.9927998 57.2908556,19.9927998 C64.8403519,19.9927998 68.9673316,13.0724922 68.9673316,7.06969391 C68.9673316,6.87215649 68.9638093,6.67461907 68.9567646,6.48098041 C69.7586785,5.84028339 70.4549228,5.04103659 71.00323,4.1300252"></path>
            </g>
        </g>
    </g>
</svg>