<?xml version="1.0" encoding="UTF-8" standalone="no"?>
<svg width="22px" height="17px" viewBox="0 0 22 17" version="1.1" xmlns="http://www.w3.org/2000/svg" xmlns:xlink="http://www.w3.org/1999/xlink">
    <!-- Generator: Sketch 50.2 (55047) - http://www.bohemiancoding.com/sketch -->
    <title>Youtube_White</title>
    <desc>Created with Sketch.</desc>
    <defs></defs>
    <g id="Symbols" stroke="none" stroke-width="1" fill="none" fill-rule="evenodd">
        <g id="socialIcons" transform="translate(-101.000000, -4.000000)" fill="#FFFFFF">
            <g id="Youtube">
                <path d="M109.72593,15.5087527 L109.725243,8.79132895 L115.667618,12.1616213 L109.72593,15.5087527 Z M122.773588,7.62730423 C122.773588,7.62730423 122.558464,5.979888 121.899346,5.25442715 C121.062905,4.30183953 120.125431,4.29735676 119.69587,4.24206932 C116.618151,4 112.001573,4 112.001573,4 L111.991951,4 C111.991951,4 107.375373,4 104.297654,4.24206932 C103.867406,4.29735676 102.930619,4.30183953 102.093491,5.25442715 C101.434372,5.979888 101.219935,7.62730423 101.219935,7.62730423 C101.219935,7.62730423 101,9.56236458 101,11.4966778 L101,13.3107035 C101,15.2457638 101.219935,17.180077 101.219935,17.180077 C101.219935,17.180077 101.434372,18.8274933 102.093491,19.5529541 C102.930619,20.5055417 104.029608,20.4756566 104.518964,20.5750246 C106.278446,20.758818 111.996762,20.8155997 111.996762,20.8155997 C111.996762,20.8155997 116.618151,20.8081284 119.69587,20.5660591 C120.125431,20.5100245 121.062905,20.5055417 121.899346,19.5529541 C122.558464,18.8274933 122.773588,17.180077 122.773588,17.180077 C122.773588,17.180077 122.993524,15.2457638 122.993524,13.3107035 L122.993524,11.4966778 C122.993524,9.56236458 122.773588,7.62730423 122.773588,7.62730423 L122.773588,7.62730423 Z"></path>
            </g>
        </g>
    </g>
</svg>